<?xml version="1.0" standalone="no"?>
<!DOCTYPE svg PUBLIC "-//W3C//DTD SVG 1.1//EN" "http://www.w3.org/Graphics/SVG/1.1/DTD/svg11.dtd" >
<!--
2013-9-30: Created.
-->
<svg>
<metadata>
Created by iconfont
</metadata>
<defs>

<font id="iconfont" horiz-adv-x="1024" >
  <font-face
    font-family="iconfont"
    font-weight="500"
    font-stretch="normal"
    units-per-em="1024"
    ascent="896"
    descent="-128"
  />
    <missing-glyph />
    
    <glyph glyph-name="x" unicode="x" horiz-adv-x="1001"
d="M281 543q-27 -1 -53 -1h-83q-18 0 -36.5 -6t-32.5 -18.5t-23 -32t-9 -45.5v-76h912v41q0 16 -0.5 30t-0.5 18q0 13 -5 29t-17 29.5t-31.5 22.5t-49.5 9h-133v-97h-438v97zM955 310v-52q0 -23 0.5 -52t0.5 -58t-10.5 -47.5t-26 -30t-33 -16t-31.5 -4.5q-14 -1 -29.5 -0.5
t-29.5 0.5h-32l-45 128h-439l-44 -128h-29h-34q-20 0 -45 1q-25 0 -41 9.5t-25.5 23t-13.5 29.5t-4 30v167h911zM163 247q-12 0 -21 -8.5t-9 -21.5t9 -21.5t21 -8.5q13 0 22 8.5t9 21.5t-9 21.5t-22 8.5zM316 123q-8 -26 -14 -48q-5 -19 -10.5 -37t-7.5 -25t-3 -15t1 -14.5
t9.5 -10.5t21.5 -4h37h67h81h80h64h36q23 0 34 12t2 38q-5 13 -9.5 30.5t-9.5 34.5q-5 19 -11 39h-368zM336 498v228q0 11 2.5 23t10 21.5t20.5 15.5t34 6h188q31 0 51.5 -14.5t20.5 -52.5v-227h-327z" />
    

    
    <glyph glyph-name="emoji" unicode="&#58954;" d="M510.944-64c-247.04 0-448 200.96-448 448s200.992 448 448 448c247.008 0 448-200.96 448-448S757.984-64 510.944-64zM510.944 768c-211.744 0-384-172.256-384-384 0-211.744 172.256-384 384-384 211.744 0 384 172.256 384 384C894.944 595.744 722.688 768 510.944 768zM512 122.656c-89.184 0-171.904 40.32-226.912 110.624-10.88 13.92-8.448 34.016 5.472 44.896 13.888 10.912 34.016 8.48 44.928-5.472 42.784-54.688 107.136-86.048 176.512-86.048 70.112 0 134.88 31.904 177.664 87.552 10.784 14.016 30.848 16.672 44.864 5.888 14.016-10.784 16.672-30.88 5.888-44.864C685.408 163.68 602.144 122.656 512 122.656zM368 380.8c-26.528 0-48 21.472-48 48l0 64c0 26.528 21.472 48 48 48s48-21.472 48-48l0-64C416 402.304 394.496 380.8 368 380.8zM656 380.8c-26.496 0-48 21.472-48 48l0 64c0 26.528 21.504 48 48 48s48-21.472 48-48l0-64C704 402.304 682.496 380.8 656 380.8z"  horiz-adv-x="1024" />

    
    <glyph glyph-name="addressbook" unicode="&#59069;" d="M160 288c-17.664 0-32 14.304-32 32l0 160c0 17.664 14.336 32 32 32s32-14.336 32-32l0-160C192 302.304 177.664 288 160 288zM864-32 224-32c-52.928 0-96 42.752-96 95.328L128 128c0 17.696 14.336 32 32 32s32-14.304 32-32l0-64.672C192 46.016 206.368 32 224 32l640 0c17.664 0 32 14.336 32 32L896 704c0 17.632-14.336 32-32 32L224 736C205.44 736 192 725.856 192 718.976L192 672c0-17.664-14.336-32-32-32S128 654.336 128 672L128 718.976C128 763.648 171.072 800 224 800l640 0c52.928 0 96-43.072 96-96l0-640C960 11.072 916.928-32 864-32zM192 544 96 544c-17.664 0-32 14.336-32 32s14.336 32 32 32l96 0c17.664 0 32-14.336 32-32S209.664 544 192 544zM192 192 96 192c-17.664 0-32 14.304-32 32s14.336 32 32 32l96 0c17.664 0 32-14.304 32-32S209.664 192 192 192zM319.456 95.008c-14.56 0-27.712 9.984-31.136 24.736-4 17.216 6.688 34.4 23.936 38.4 4.544 1.056 97.792 22.656 167.744 30.56l0 20.032c-67.136 57.6-96 139.52-96 269.92 0 127.84 64.608 192.672 192 192.672 158.688 0 192-104.416 192-192 0-139.008-66.24-223.2-127.2-271.2l0.224-19.84c69.28-8.544 161.504-29.088 165.984-30.08 17.248-3.84 28.096-20.96 24.224-38.208-3.808-17.216-20.704-28.224-38.208-24.224-1.184 0.256-121.856 27.168-185.92 31.648-16.64 1.152-29.568 14.912-29.76 31.552l-0.672 64.672c-0.128 10.464 4.864 20.32 13.408 26.368C642.016 287.2 704 357.152 704 479.328c0 90.912-37.088 128-128 128-92.096 0-128-36.064-128-128.672 0-117.632 24.16-184.032 83.392-229.248C539.328 243.36 544 233.984 544 224l0-64.672c0-17.088-13.408-31.168-30.464-31.968-63.584-3.04-185.568-31.264-186.784-31.52C324.32 95.264 321.888 95.008 319.456 95.008z"  horiz-adv-x="1024" />

    
    <glyph glyph-name="kuaichexuetang" unicode="&#58890;" d="M989.563188 300.036839c0 264.22994-214.189244 478.373135-478.416114 478.388485l0 0 0 0c-0.001023 0-0.001023 0-0.001023 0l0 0c-264.22687-0.01535-478.416114-214.158545-478.416114-478.388485 0-264.230963 214.189244-478.447836 478.417137-478.462163l0 0c0 0 0 0 0.001023 0l0 0 0 0C775.374968-178.410997 989.563188 35.805876 989.563188 300.036839zM430.302815-90.579603C254.635933-91.159818 90.906941 154.43367 114.481869 273.327524c10.930957 55.126528 241.318114-29.55206 241.318114-29.55206 16.697287-45.991474 52.826136-82.157161 98.743932-98.965989C454.543915 144.810498 489.485729-90.383128 430.302815-90.579603zM511.148098 465.790954C511.147074 465.790954 511.147074 465.790954 511.148098 465.790954L511.148098 465.790954c-72.190159-0.01228-133.002177-46.405913-155.716504-110.823038 0 0-221.965347-0.254803-226.261187 55.437613-5.51562 71.483054 121.612779 291.01805 381.976668 287.671838l0 0c0 0 0 0 0.001023 0l0 0 0 0c260.363889 3.346211 387.492288-216.188784 381.975645-287.671838-4.295839-55.692417-226.260164-55.437613-226.260164-55.437613C644.149251 419.386064 583.338257 465.779697 511.148098 465.790954L511.148098 465.790954 511.148098 465.790954zM591.992357-90.579603c-59.183937 0.195451-24.241101 235.389078-24.241101 235.389078 45.917796 16.808828 82.046644 52.974515 98.743932 98.965989 0 0 230.390227 84.678588 241.318114 29.55206C931.386184 154.43367 767.657192-91.159818 591.992357-90.579603zM913.232732 421.533984c0 0-0.014326-0.023536-0.030699-0.051165 0.059352 0.036839 0.11768 0.062422 0.122797 0.051165C913.343249 421.484865 913.268548 421.570823 913.232732 421.533984zM913.20101 421.481795c-0.028653-0.01842-0.061398-0.034792-0.078795-0.059352C913.122215 421.363092 913.169287 421.429607 913.20101 421.481795z"  horiz-adv-x="1024" />

    
    <glyph glyph-name="jiantouxia" unicode="&#58901;" d="M123.022383 451.281495c-45.229111 0-74.18049-57.156768-39.495526-89.931219l389.55425-368.588753c22.293749-21.139459 55.535851-21.139459 77.885881 0l389.555274 368.588753c33.8172 31.965016 7.468089 89.931219-38.972617 89.931219L123.022383 451.281495 123.022383 451.281495zM123.022383 451.281495"  horiz-adv-x="1024" />

    
    <glyph glyph-name="xiugai" unicode="&#58955;" d="M886.444623-160.868459 65.174883-160.868459 65.174883 760.547141 665.411507 760.547141 665.411507 720.99431 104.727715 720.99431 104.727715-121.316651 846.892815-121.316651 846.892815 401.003392 886.444623 401.003392ZM258.610454 420.779807l140.557246 0 0-39.551808-140.557246 0 0 39.551808ZM258.610454 151.532597l435.596889 0 0-39.551808-435.596889 0 0 39.551808ZM460.833155 257.636147l35.149545 116.909663 328.623529 328.662415 87.042425-87.012749L582.579987 287.107365 460.833155 257.636147zM530.976702 353.629431 518.577301 312.319583l43.87937 10.621918 293.26216 293.25295-31.112602 31.083949L530.976702 353.629431zM929.357991 644.989265 853.420485 720.937005 881.385397 748.901917 957.32188 672.9552Z"  horiz-adv-x="1024" />

    
    <glyph glyph-name="touxiang" unicode="&#58959;" d="M512 812C229.674667 812 0 582.325333 0 300s229.674667-512 512-512 512 229.674667 512 512S794.325333 812 512 812zM523.221333 659.829333c193.6 0 193.92-148.117333 193.92-231.424s-77.568-238.08-193.92-238.272c-116.352-0.170667-193.92 154.944-193.92 238.250667C329.301333 511.690667 329.642667 659.829333 523.221333 659.829333zM512-183.776c-148.16 0-280.682667 66.688-369.429333 171.584 11.648 32.213333 28.693333 67.114667 51.733333 85.034667 49.536 38.549333 192.298667 102.613333 192.298667 102.613333l90.133333-171.413333 16.384 41.557333-25.408 51.242667 50.794667 51.264 50.773333-51.264-25.365333-51.242667 13.738667-40.597333 92.714667 170.453333c0 0 142.784-64.064 192.32-102.613333 22.570667-17.578667 38.421333-44.864 49.578667-71.722667C803.690667-111.392 666.325333-183.776 512-183.776z"  horiz-adv-x="1024" />

    
    <glyph glyph-name="sandiancaidan" unicode="&#58902;" d="M518.619256 588.035112c45.112454 0 81.688487 36.276205 81.688487 81.029478 0 44.732807-36.576033 81.010035-81.688487 81.010035-45.11143 0-81.688487-36.277228-81.688487-81.010035C436.929746 624.311317 473.506802 588.035112 518.619256 588.035112zM518.619256 381.821517c-45.11143 0-81.688487-36.277228-81.688487-81.030501 0-44.75225 36.577057-81.010035 81.688487-81.010035 45.112454 0 81.688487 36.257785 81.688487 81.010035C600.307743 345.544289 563.73171 381.821517 518.619256 381.821517zM518.619256 13.547942c-45.11143 0-81.688487-36.276205-81.688487-81.009012 0-44.75225 36.577057-81.029478 81.688487-81.029478 45.112454 0 81.688487 36.276205 81.688487 81.029478C600.307743-22.728262 563.73171 13.547942 518.619256 13.547942z"  horiz-adv-x="1024" />

    
    <glyph glyph-name="dianhua01" unicode="&#58897;" d="M943.627485 401.370759c-70.852698-101.023858-149.981896-5.188162-167.82017 23.752983C757.973134 454.067958 643.605364 565.533632 512.095167 565.533632c-155.884326 0-247.25022-115.27442-265.186731-144.647401-17.936511-29.372981-97.506754-126.634142-168.755472-24.108071C51.64831 429.08496 3.004427 709.498488 512.095167 710.18001 1018.359536 709.507698 969.984782 433.204791 943.627485 401.370759zM512.095167 661.964892c-463.004099 0-405.706115-216.32693-385.726062-241.078661 34.351366-42.553165 64.86738 6.491855 96.43126 48.216141 23.020296 30.426987 127.547954 145.707546 289.294802 145.707546l0 0c136.185682 0 266.601964-116.088972 287.689235-142.176117 27.972075-34.604122 70.088288-89.201601 95.89607-47.509037C914.295436 450.355403 970.896548 661.964892 512.095167 661.964892zM512.095167 517.317491c209.499431 0 361.617991-322.688353 361.617991-482.157321 0-142.515854-46.831608-144.647401-361.617991-144.647401-314.76694 0-361.617991 2.140757-361.617991 144.647401C150.476153 190.696572 302.257022 517.317491 512.095167 517.317491zM512.095167-61.27109c272.814456 0 313.40185 1.788739 313.40185 121.503285 0 108.620883-131.833561 408.869155-313.40185 408.869155-181.859931 0-313.40185-302.233486-313.40185-408.869155C198.692295-59.473141 239.297085-61.27109 512.095167-61.27109zM512.095167 372.67009c66.571185 0 120.53933-53.968146 120.53933-120.53933s-53.968146-120.53933-120.53933-120.53933S391.554814 185.559575 391.554814 252.130759 445.522959 372.67009 512.095167 372.67009zM512.095167 179.80757c39.944757 0 72.323189 32.379455 72.323189 72.323189 0 39.944757-32.379455 72.323189-72.323189 72.323189s-72.323189-32.379455-72.323189-72.323189C439.770955 212.186002 472.15041 179.80757 512.095167 179.80757z"  horiz-adv-x="1024" />

    
    <glyph glyph-name="shoujihaoma" unicode="&#58947;" d="M745.249857 648.386642 283.659967 648.386642 283.659967 703.282926c0 6.443759 5.237281 11.685133 11.676947 11.685133l438.238043 0c6.443759 0 11.675924-5.241374 11.675924-11.685133L745.25088 648.386642 745.249857 648.386642zM745.249857 88.769135 283.659967 88.769135 283.659967 615.439252l461.590913 0L745.25088 88.769135 745.249857 88.769135zM745.249857-97.167648c0-6.430456-5.236258-11.667737-11.675924-11.667737L295.33589-108.835386c-6.443759 0-11.676947 5.237281-11.676947 11.667737L283.658943 55.817652l461.590913 0L745.249857-97.167648 745.249857-97.167648zM733.573933 747.919543 295.33589 747.919543c-24.65247 0-44.647873-19.996426-44.647873-44.63764l0-800.446481c0-24.662703 19.995403-44.61922 44.647873-44.61922l438.238043 0c24.651446 0 44.646849 19.956517 44.646849 44.61922L778.220782 703.282926C778.220782 727.924139 758.225379 747.919543 733.573933 747.919543L733.573933 747.919543zM465.000058-9.967634l98.908684 0 0-32.962739-98.908684 0L465.000058-9.967634 465.000058-9.967634zM465.000058-9.967634"  horiz-adv-x="1024" />

    
    <glyph glyph-name="gmgongyingshangzhuyelianxidianhua" unicode="&#58939;" d="M907.702274 392.575442c-64.783469-92.574419-137.131217-4.756327-153.444764 21.763676-16.303314 26.524097-120.870882 128.665405-241.117546 128.665405-142.529157 0-226.068805-105.631806-242.467287-132.544759-16.397459-26.91807-89.151459-116.042923-154.297179-22.094204-24.232914 29.607318-68.712965 286.562575 396.765489 287.188838C976.030475 674.936321 931.801135 421.743762 907.702274 392.575442L907.702274 392.575442zM513.13894 631.373153c-423.337681 0-370.94645-198.23283-352.677365-220.913389 31.407314-38.994106 59.305711 5.947456 88.169085 44.180222 21.045315 27.885094 116.616998 133.520993 264.508279 133.520993l0 0c124.518968 0 243.76177-106.378819 263.043928-130.280182 25.577538-31.710212 64.082504-81.743746 87.678922-43.535539C880.883465 437.461745 932.637176 631.373153 513.13894 631.373153L513.13894 631.373153zM513.13894 498.824301c191.552687 0 330.641489-295.699676 330.641489-441.827801 0-130.594337-42.824341-132.549875-330.641489-132.549875-287.799752 0-330.636373 1.964748-330.636373 132.549875C182.502567 199.523611 321.277214 498.824301 513.13894 498.824301L513.13894 498.824301zM513.13894-31.368036c249.445212 0 286.553365 1.63729 286.553365 111.340831 0 99.531877-120.540354 374.666168-286.553365 374.666168-166.281117 0-286.549272-276.950659-286.549272-374.666168C226.584552-29.721537 263.711124-31.368036 513.13894-31.368036L513.13894-31.368036zM513.13894 366.274426c60.869323 0 110.214171-49.455365 110.214171-110.454648 0-61.004399-49.344848-110.458741-110.214171-110.458741S402.927839 194.816402 402.927839 255.819778C402.927839 316.819061 452.269617 366.274426 513.13894 366.274426L513.13894 366.274426zM513.13894 189.545352c36.523845 0 66.128093 29.668717 66.128093 66.274426 0 36.600593-29.603225 66.270333-66.128093 66.270333-36.519752 0-66.129116-29.670763-66.129116-66.270333C447.009823 219.215092 476.619188 189.545352 513.13894 189.545352L513.13894 189.545352zM513.13894 189.545352"  horiz-adv-x="1024" />

    
    <glyph glyph-name="huiyuanzhongxin" unicode="&#58888;" d="M111.332 451.004c0.856 2.452 1.736 4.896 2.562 7.358 6.672 19.874 24.038 33.182 45.198 34.626 19.21 1.312 38.572-9.972 47.528-27.7 9.134-18.08 6.53-39.486-6.722-55.158-1.506-1.78-3.058-3.52-4.864-5.596 37.39-22.886 74.444-45.572 111.502-68.248 14.072-8.61 28.094-17.3 42.26-25.752 7.956-4.748 14.176-3.34 18.542 4.6 42.624 77.518 85.116 155.108 128.024 233.364-18.638 9.428-30.496 23.754-31.582 45.1-0.758 14.91 4.478 27.81 15.174 38.238 21.07 20.542 55.532 18.512 73.964-4.2 21.122-26.03 13.57-56.476-20.132-79.45 11.012-20.092 22.048-40.244 33.098-60.388 30.844-56.228 61.69-112.454 92.544-168.676 7.132-12.994 11.72-14.238 24.272-6.556 47.796 29.248 95.584 58.508 143.37 87.774 2.188 1.34 4.322 2.766 6.866 4.398-9.828 9.826-16.1 21.08-16.852 34.81-1.414 25.784 16.244 48.242 41.138 52.538 25.798 4.452 49.798-10.266 57.442-35.206 0.606-1.976 1.332-3.918 2.002-5.874 0-5.768 0-11.534 0-17.302-8.162-25.996-24.816-41.144-53.422-41.38-0.98-2.962-2.052-5.888-2.922-8.872-27.97-95.954-55.922-191.914-83.878-287.872-3.636-12.476-8.004-15.856-20.658-15.858-160.936-0.018-321.872-0.03-482.81-0.032-13.506 0-17.762 3.202-21.446 15.86-22.67 77.876-45.338 155.752-68.03 233.62-6.14 21.072-12.362 42.12-18.558 63.22-21.372 0.016-37.538 8.434-47.674 26.986-2.464 4.51-3.984 9.538-5.938 14.328C111.332 439.47 111.332 445.236 111.332 451.004zM513.99 29.422c75.222 0 150.444 0.054 225.666-0.036 20.12-0.024 36.188-14.206 38.414-33.378 2.228-19.198-10.502-36.862-29.84-41.202-2.78-0.624-5.708-0.812-8.568-0.812-150.444-0.036-300.888-0.052-451.332-0.002-17.198 0.006-31.546 10.256-36.674 25.716-5.136 15.486-0.428 33.012 13.412 41.77 7.11 4.5 16.462 7.574 24.83 7.638 74.694 0.576 149.394 0.336 224.092 0.336C513.99 29.44 513.99 29.432 513.99 29.422z"  horiz-adv-x="1024" />

    
    <glyph glyph-name="quan" unicode="&#58942;" d="M945.386036 351.994188 607.34195 13.986941l-17.309224-17.379832L459.995067-133.399851c-19.153222-19.147082-50.197262-19.110243-69.347414 0l-34.657334 34.694173-34.653241 34.692127-34.69315 34.619472c28.726252 28.720112 28.726252 75.347059 0 104.036471-28.727275 28.727275-75.277474 28.727275-104.003725 0l-34.69008 34.657334-34.657334 34.69008-34.653241 34.689057c-19.186991 19.154245-19.150152 50.161447 0 69.313645l130.002866 129.999796 17.307178 17.383926L564.032562 733.384501c19.150152 19.150152 50.160423 19.150152 69.309552 0l52.002374-52.003398 17.344017-17.307178 34.657334-34.69315c-28.727275-28.727275-28.727275-75.274404 0-104.000656 28.725228-28.727275 75.31329-28.727275 104.039541 0l34.652218-34.69315 52.001351-52.000328 17.346063-17.310248C964.499349 402.227266 964.536188 371.14434 945.386036 351.994188L945.386036 351.994188 945.386036 351.994188zM834.056462 463.324786c-43.973514-17.197684-95.827509-8.137331-131.330094 27.363208-35.57524 35.540448-44.633546 87.430258-27.400047 131.403772l-59.289338 59.290361c-9.576099 9.579169-25.117051 9.579169-34.69315 0L269.297864 369.340251l26.037003-26.003234c4.753257-4.750187 4.790096-12.55699 0-17.344017L277.954011 308.683776c-4.790096-4.786003-12.523221-4.786003-17.310248 0l-26.000164 26.004257L130.639874 230.681238c-9.573029-9.573029-9.573029-25.112957 0-34.69008l59.293431-59.289338c43.973514 17.160845 95.826486 8.173147 131.403772-27.400047 35.499515-35.505655 44.523029-87.35965 27.324322-131.333164l59.33027-59.367109c9.53926-9.537214 25.079188-9.573029 34.656311 0l104.002702 104.042611-26.002211 26.001187c-4.787026 4.787026-4.787026 12.555967 0 17.34197l17.382902 17.310248c4.787026 4.79112 12.523221 4.79112 17.310248 0l26.000164-25.996071 312.043922 312.039829c9.573029 9.613962 9.537214 25.117051 0 34.654264L834.056462 463.324786 834.056462 463.324786 834.056462 463.324786zM503.341295 117.986573l-17.347087-17.34197c-4.787026-4.78805-12.56006-4.751211-17.347087 0l-52.000328 51.999304c-4.790096 4.822842-4.790096 12.55699 0 17.347087l17.346063 17.309224c4.787026 4.787026 12.55699 4.822842 17.344017 0l52.003398-51.999304C508.128321 130.547657 508.128321 122.776669 503.341295 117.986573L503.341295 117.986573 503.341295 117.986573zM399.337569 221.994392l-17.347087-17.314341c-4.786003-4.787026-12.55699-4.787026-17.346063 0l-52.000328 52.003398c-4.787026 4.787026-4.787026 12.522198 0 17.310248l17.347087 17.34197c4.787026 4.787026 12.55699 4.787026 17.347087 0l51.999304-51.999304C404.087757 234.587198 404.124596 226.780395 399.337569 221.994392L399.337569 221.994392 399.337569 221.994392zM399.337569 221.994392"  horiz-adv-x="1024" />

    
    <glyph glyph-name="chenggong" unicode="&#58948;" d="M882.957 675.429c-16.755 12.562-39.795 25.124-58.644 35.594-20.944 10.468-39.797 23.033-58.644 33.502-39.797 23.035-79.588 46.064-119.385 69.098-18.849 10.469-39.794 20.938-58.643 33.502-16.756 10.469-46.077 18.845-75.404 18.845h-4.186c-25.134 0-58.646-10.469-73.303-18.845-18.852-12.563-39.798-23.033-58.645-35.594-39.797-23.034-79.593-43.969-119.386-67.003-18.849-12.563-39.793-23.034-58.645-35.596-18.847-10.469-39.794-20.939-58.643-33.502-31.418-20.938-67.024-69.097-67.024-119.349v-345.482c0-50.25 35.606-100.505 67.024-119.348 35.606-25.124 79.588-46.063 117.289-69.098 39.794-23.030 79.588-43.97 119.386-69.098 18.847-10.467 39.794-20.937 58.645-33.501 16.755-10.469 46.075-20.939 73.303-20.939h12.563c43.984 0 98.443 37.694 129.857 56.539 37.699 23.028 77.495 43.968 117.292 66.999 37.698 20.939 81.683 43.973 117.286 67.002 29.325 20.939 67.026 69.095 67.026 119.349v349.667c0.001 50.25-37.7 98.409-69.119 117.254v0zM897.619 229.445c0-43.97-33.509-85.847-58.644-102.598-31.418-20.937-69.117-41.876-102.627-60.719-35.607-20.939-69.117-37.694-102.628-58.629-27.226-16.749-75.397-50.252-115.194-50.252h-10.473c-25.134 0-48.173 10.469-62.834 18.844-18.848 10.469-35.605 18.847-52.362 31.409-33.508 18.842-69.117 37.69-104.722 58.629-33.514 18.844-71.209 39.782-102.625 60.719-27.229 16.749-58.645 60.719-58.645 104.688v303.609c0 43.971 31.417 85.845 58.645 104.69 16.755 10.469 35.603 18.845 52.358 29.315 14.661 10.469 33.511 20.937 50.267 31.407 35.607 18.846 71.216 37.689 104.722 58.627 16.756 10.469 33.514 18.846 50.267 29.315 14.661 10.471 41.889 18.844 64.929 18.844h4.186c25.135 0 50.272-6.282 67.025-16.75 16.756-10.469 33.513-20.939 50.265-29.314 35.607-20.938 69.12-39.783 104.723-60.721 16.756-10.469 33.514-20.937 52.364-29.313 14.658-8.378 35.604-20.939 50.266-31.409 27.229-16.749 60.739-60.719 60.739-102.598v-307.792zM516.98 212.634l245.236 245.235c7.933 7.933 10.111 18.615 4.865 23.86l-18.995 18.996c-5.244 5.244-15.927 3.067-23.859-4.866l-238.491-238.49-142.060 142.058c-5.244 5.245-13.749 5.244-18.993 0l-18.995-18.995c-5.245-5.245-5.245-13.749 0-18.993l170.959-170.96c5.244-5.244 13.746-5.244 18.992 0l18.996 18.997c0.958 0.955 1.737 2.020 2.342 3.158z"  horiz-adv-x="1024" />

    
    <glyph glyph-name="chenggong1" unicode="&#58895;" d="M838.0361 573.717012c-14.7264 11.041474-34.975583 22.081924-51.54291 31.283494-18.408255 9.200546-34.977629 20.243043-51.54291 29.444613C699.972651 654.690208 664.999115 674.931205 630.022509 695.175271c-16.567327 9.201569-34.974559 18.402115-51.541887 29.444613-14.727423 9.201569-40.497343 16.563234-66.273403 16.563234l-3.678786 0c-22.090111 0-51.544957-9.201569-64.427358-16.563234-16.569374-11.042497-34.978652-20.243043-51.543933-31.283494-34.977629-20.244067-69.954235-38.645159-104.928794-58.889225-16.567327-11.042497-34.973536-20.244067-51.543933-31.284517-16.565281-9.201569-34.974559-18.403139-51.541887-29.444613-27.612894-18.402115-58.907645-60.72913-58.907645-104.897072l0-303.645648c0-44.164872 31.29475-88.333838 58.907645-104.896048 31.29475-22.081924 69.951165-40.485063 103.08582-60.730153 34.974559-20.24202 69.951165-38.646182 104.928794-60.730153 16.565281-9.199523 34.974559-18.401092 51.543933-29.443589 14.7264-9.201569 40.495296-18.403139 64.427358-18.403139l11.042497 0c38.658462 0 86.521562 33.128515 114.13241 49.691749 33.133631 20.239973 68.111261 38.644135 103.087866 58.886155 33.132608 18.403139 71.792093 38.648229 103.083773 58.888202 25.774013 18.403139 58.909691 60.728106 58.909691 104.897072L898.784672 470.660868C898.785695 514.82574 865.650017 557.152754 838.0361 573.717012L838.0361 573.717012zM850.922594 181.737526c0-38.646182-29.451776-75.452459-51.54291-90.173742-27.612894-18.401092-60.746526-36.805254-90.200348-53.366442-31.295773-18.403139-60.746526-33.128515-90.201371-51.529607-23.928992-14.721283-66.267263-44.166919-101.243869-44.166919l-9.203616 0c-22.090111 0-42.339294 9.201569-55.224766 16.562211-16.566304 9.201569-31.293727 16.565281-46.02115 27.605731-29.450752 16.560164-60.746526 33.126468-92.041276 51.529607-29.454846 16.562211-62.58643 34.965349-90.198302 53.366442-23.932062 14.721283-51.543933 53.366442-51.543933 92.010577L173.501054 450.418848c0 38.647205 27.611871 75.450413 51.543933 92.012623 14.7264 9.201569 31.29168 16.563234 46.01808 25.764803 12.886495 9.201569 29.452799 18.401092 44.180222 27.603685 31.295773 16.564257 62.591547 33.125445 92.041276 51.52756 14.727423 9.201569 29.454846 16.564257 44.180222 25.764803 12.886495 9.202593 36.81651 16.562211 57.066717 16.562211l3.678786 0c22.091134 0 44.184315-5.520737 58.908668-14.722306 14.727423-9.201569 29.453822-18.403139 44.178175-25.76378 31.295773-18.402115 60.749596-34.966373 92.042299-53.368488 14.727423-9.201569 29.454846-18.401092 46.023196-25.762757 12.883425-7.362688 31.292704-18.403139 44.179199-27.605731 23.932062-14.721283 53.383838-53.366442 53.383838-90.173742L850.925664 181.737526zM516.377192 166.963031l215.540008 215.538985c6.971785 6.971785 8.887414 16.360619 4.276397 20.970614l-16.695241 16.696264c-4.608971 4.608971-13.998829 2.695389-20.969591-4.27742L488.917794 206.281525 364.061135 331.136138c-4.608971 4.609994-12.084223 4.608971-16.693194 0l-16.695241-16.695241c-4.609994-4.609994-4.609994-12.084223 0-16.693194l150.257166-150.258189c4.608971-4.608971 12.082176-4.608971 16.692171 0l16.696264 16.697287C515.160481 165.025912 515.84405 165.963261 516.377192 166.963031z"  horiz-adv-x="1024" />

    
    <glyph glyph-name="touxiang1" unicode="&#58951;" d="M510.451 729.446c-243.164 0-442.115-198.951-442.115-442.115 0-243.159 198.951-442.11 442.115-442.11 243.159 0 442.11 198.951 442.11 442.11 0 243.165-198.951 442.115-442.11 442.115v0 0zM521.501 596.813c168.556 0 168.556-127.11 168.556-198.951 0-71.846-66.318-204.479-168.556-207.24-99.476 0-168.556 132.633-168.556 207.24 0.001 71.842 0.001 198.951 168.556 198.951v0 0zM510.451-129.91c-127.11 0-243.164 58.030-320.533 149.211 11.051 27.634 24.867 58.030 44.212 74.607 41.446 33.161 165.789 88.425 165.789 88.425l77.37-149.215 13.817 35.923-22.106 44.212 44.212 44.208 44.212-44.208-19.345-46.974 11.055-35.924 80.132 146.45c0 0 124.343-55.263 165.793-88.425 19.34-13.813 33.157-38.685 41.447-60.786-74.605-96.714-193.422-157.504-326.054-157.504v0 0zM510.451-129.91z"  horiz-adv-x="1024" />

    
    <glyph glyph-name="icon" unicode="&#58880;" d="M439.686 649.207c0-38.431 31.154-69.585 69.585-69.585s69.585 31.154 69.585 69.585c0 38.431-31.154 69.585-69.585 69.585-38.431 0-69.585-31.154-69.585-69.585zM442.127 387.811c0-38.431 31.154-69.585 69.585-69.585 38.431 0 69.585 31.154 69.585 69.585 0 38.431-31.154 69.585-69.585 69.585-38.431 0-69.585-31.154-69.585-69.585zM442.127 111.518c0-38.431 31.154-69.585 69.585-69.585 38.431 0 69.585 31.154 69.585 69.585 0 38.431-31.154 69.585-69.585 69.585-38.431 0-69.585-31.154-69.585-69.585z"  horiz-adv-x="1024" />

    
    <glyph glyph-name="dingdan-80" unicode="&#58893;" d="M781.475 752.056h-49.113c-13.584 0-29.257-8.359-29.257-21.944 0-13.584 15.673-27.169 29.257-27.169h49.113c29.257 0 49.113-19.854 49.113-49.113v-565.305c0-29.257-19.854-49.113-49.113-49.113h-528.734c-29.257 0-61.649 19.854-61.649 49.113v565.304c0 29.258 19.854 49.113 49.113 49.113h61.649c13.584 0 18.809 13.585 18.809 27.169 0 13.585-5.225 21.944-18.809 21.944h-61.648c-68.967 0.001-98.225-42.841-98.225-99.268v-559.035c0-60.605 36.572-103.447 103.447-103.447h530.822c66.878 0 103.451 35.528 103.451 103.447v559.035c0 56.426-34.483 99.269-98.224 99.269v0zM301.854 530.529c0-13.584 11.497-25.076 25.077-25.076h368.859c13.584 0 25.080 11.492 25.080 25.076 0 13.585-11.497 25.080-25.080 25.080h-368.859c-13.58 0-25.077-11.496-25.077-25.080v0zM694.746 419.767h-367.815c-13.58 0-25.077-11.496-25.077-25.080 0-13.581 11.497-25.076 25.077-25.076h368.859c13.584 0 25.080 11.496 25.080 25.076-1.044 14.63-12.54 25.080-26.124 25.080v0zM694.746 272.435h-367.815c-13.58 0-25.077-11.497-25.077-25.081 0-13.583 11.497-25.075 25.077-25.075h368.859c13.584 0 25.080 11.492 25.080 25.075-1.044 14.631-12.54 25.081-26.124 25.081v0zM426.199 690.403h171.369c19.855 0 36.572 19.854 36.572 42.843 0 22.987-16.718 42.842-37.616 42.842h-170.325c-20.899 0-37.616-19.854-37.616-42.842s16.718-42.843 37.616-42.843v0zM426.199 690.403z"  horiz-adv-x="1024" />

    
    <glyph glyph-name="changyongchengcheren" unicode="&#58887;" d="M409.998 320.599c-139.937 0-253.895 113.956-253.895 253.895 0 139.937 113.956 253.895 253.895 253.895 139.937 0 253.895-113.956 253.895-253.895 0-140.085-113.956-253.895-253.895-253.895v0 0zM409.999 779.973c-113.219 0-205.477-92.111-205.477-205.477 0-113.219 92.111-205.477 205.477-205.477 113.367 0 205.477 92.111 205.477 205.477-0.148 113.367-92.259 205.477-205.477 205.477v0 0zM27.090-62.752c-13.433 0-24.207 10.924-24.208 24.208 0 108.496 42.218 210.497 118.831 287.404 9.449 9.596 24.799 9.595 34.394 0 9.449-9.449 9.449-24.8 0-34.246-67.606-67.606-104.805-157.504-104.804-253.009 0-13.433-10.775-24.356-24.208-24.356v0 0zM411.77 320.157c-13.581-1.329-25.98 9.3-26.569 23.027-0.591 12.99 9.3 24.062 22.289 25.243 0.738 0 1.772 0.149 2.51 0.149 224.518 0 406.971-182.596 406.971-406.971 0-13.433-10.775-24.208-24.208-24.208s-24.207 10.924-24.208 24.208c0 197.653-160.898 358.553-356.782 358.553v0 0zM690.612 728.161c-13.433 0-24.207 10.924-24.208 24.208 0 13.433 10.775 24.208 24.208 24.208 114.694 0 207.987-98.163 207.987-218.911 0-120.747-93.291-218.911-207.987-218.911-13.433 0-24.207 10.924-24.208 24.208 0 13.433 10.775 24.208 24.208 24.208 87.978 0 159.57 76.463 159.57 170.493 0 94.028-71.445 170.493-159.57 170.493v0 0zM690.612 338.609c-13.433 0-24.207 10.924-24.208 24.208 0 13.433 10.775 24.208 24.208 24.208 182.303 0 330.507-156.469 330.507-348.662 0-13.433-10.775-24.208-24.208-24.208-13.433 0-24.207 10.924-24.208 24.208 0 165.622-126.503 300.246-282.090 300.246v0 0zM690.612 338.609z"  horiz-adv-x="1024" />

    
    <glyph glyph-name="jiantou" unicode="&#58894;" d="M666.40551 393.544718 428.317513 631.632715 398.557959 601.87316 606.890256 393.544718 398.557959 185.21242 428.317513 155.454793 636.645956 363.783236 636.647883 363.783236Z"  horiz-adv-x="1024" />

    
    <glyph glyph-name="kttx" unicode="&#58889;" d="M404.068825 193.320193c0 113.152083 63.773466 211.393571 157.327188 260.791631 0.820692 2.39556 1.570775 4.703115 2.249227 6.843872l3.974521 11.219529c1.061169 3.710508 2.12336 7.246031 3.180436 10.425444 5.303796 1.592264 10.425444 4.595668 15.198144 8.837272 4.237511 3.796466 8.125051 8.919137 11.57257 15.633049 3.444449 6.719028 5.743818 15.905248 6.801916 27.655873 1.061169 8.570189 0.884137 15.814174-0.441045 21.644973-1.324158 5.829775-3.094478 10.688433-5.212722 14.398942-2.117221 4.327562-5.125741 7.776104-8.833179 10.42442 0 21.912056-1.329275 43.466977-3.977591 64.84896-2.650363 18.641569-7.154957 38.252209-13.605879 58.840106-6.359848 20.583804-16.518209 39.401382-30.390147 56.455803-5.830799 7.507998-13.959943 14.930037-24.385387 22.438035-10.334369 7.507998-22.261003 14.222933-35.603893 20.056801-13.337773 5.916756-27.650757 10.602476-42.8489 14.045901-15.19405 3.447519-30.568203 5.212722-46.025243 5.212722-12.280698 0-25.006534-0.971118-38.081317-2.826372-13.074783-1.855254-26.326599-5.480828-39.668465-10.778484-13.337773-5.298679-26.149567-12.634762-38.430264-21.998013-12.280698-9.278317-23.763217-21.467941-34.455743-36.399001-11.220552-15.461133-19.521612-33.044604-24.825408-52.834322-5.389754-19.698644-9.100262-38.167275-11.219529-55.215556-2.119267-20.320814-3.180436-40.553625-3.180436-60.874439-4.859681-5.298679-8.3072-10.951423-10.425444-16.785292-2.64934-5.915733-4.241604-12.543687-4.771677-20.051685-0.527003-7.513114 0.530073-15.72924 3.180436-24.825408 2.653433-9.100262 5.919826-16.083304 9.631358-20.850887 3.710508-4.858658 7.243985-8.570189 10.42442-11.223622 3.711532-2.650363 7.507998-4.504594 11.218506-5.561669 2.740414-8.570189 5.389754-16.786315 8.040117-24.829502 2.653433-6.976902 5.742794-13.781888 9.191336-20.405749 3.443425-6.714935 7.331989-11.927657 11.573593-15.639189 9.100262-7.421017 17.315364-14.753005 24.824385-21.998013 7.507998-7.243985 11.750625-16.962324 12.811794-29.243021 0.525979-8.570189 0.794086-16.255219 0.794086-23.23826 0-6.976902-1.325182-13.690814-3.974521-20.051685-2.739391-6.450922-7.158027-12.897751-13.255908-19.612687-6.183839-6.627954-14.839986-13.428847-26.059516-20.409842-9.631358-5.92085-20.142759-10.865465-31.630395-14.84408-11.486612-3.974521-23.323195-7.770987-35.603893-11.219529-12.280698-3.443425-24.294312-7.068999-36.043914-10.779507-11.750625-3.796466-22.442128-8.656147-32.074509-14.839986-9.627265-6.096858-17.756409-13.428847-24.470321-21.998013-6.714935-8.569166-11.133571-19.524682-13.252839-32.868595-5.389754-34.718733-6.537903-63.077617-3.619434-85.252663 3.003404-22.176069 7.417947-35.427884 13.251815-39.668465 3.180436-2.736321 10.956539-5.389754 23.232121-8.040117 12.281721-2.739391 27.301809-5.389754 44.881187-8.039093 17.584494-2.650363 37.196157-5.212722 58.84113-7.599072 21.644973-2.38635 43.378973-4.504594 65.287959-6.360871 21.911032-1.856277 43.11189-3.357468 63.699788-4.418636 20.581758-1.057075 38.607296-1.587148 54.06843-1.587148l66.034972 2.02717C424.422386 70.24204 404.068825 129.401418 404.068825 193.320193zM931.307901 290.955884c-13.329587 30.732955-31.351032 57.496505-54.044894 80.46052-22.605857 22.958898-49.373501 41.064254-80.018451 54.404074-30.644951 13.334703-63.321164 20.048615-98.04092 20.048615-35.238572 0-68.180845-6.625908-98.824773-20.048615-30.644951-13.33982-57.314357-31.445176-80.018451-54.404074-22.693862-22.964014-40.71633-49.810453-54.044894-80.46052-13.33982-30.644951-20.054755-63.327304-20.054755-98.035804s6.713912-67.390853 20.054755-98.035804c13.329587-30.732955 31.351032-57.496505 54.044894-80.46052 22.61609-22.958898 49.373501-40.975227 80.018451-54.044894 30.644951-13.074783 63.586201-19.60757 98.824773-19.60757 34.631752 0 67.39597 6.531763 98.04092 19.60757 30.644951 13.069667 57.314357 31.085996 80.018451 54.044894 22.693862 22.964014 40.71633 49.815569 54.044894 80.46052 13.428847 30.644951 20.054755 63.327304 20.054755 98.035804S944.647721 260.310933 931.307901 290.955884zM846.529029 242.553501c-3.26844-9.53619-7.243985-21.014616-12.19167-34.438347-4.858658-13.33982-10.07138-27.204595-15.625886-41.605583-5.565762-14.389732-11.396561-29.230742-17.5804-44.420699-6.095835-15.189957-12.19167-29.766954-18.022469-43.62559-7.40976-17.050328-19.336394-29.854958-35.591613-38.419008-16.244986-8.569166-33.383318-12.544711-51.218522-12.014638-17.845437 0.530073-34.973536 5.830799-51.228755 15.985066-16.244986 10.154267-28.347628 25.349341-36.387745 45.662992-3.710508 9.624195-8.039093 21.10876-12.809747 34.443463-4.770653 13.334703-9.884115 26.934442-15.184841 40.804335-5.300726 13.864776-10.42442 27.464515-15.195074 40.804335-4.770653 13.334703-9.099239 25.349341-12.809747 36.028565-4.240581 10.159384-3.26844 19.430538 2.827395 27.999704 6.183839 8.56405 13.869892 14.836917 23.235191 18.812461 9.276271 3.975545 18.895349 5.477758 28.789697 4.417613 9.894348-1.060145 16.951067-5.830799 21.191648-14.394848 2.650363-5.918803 5.918803-13.599739 9.629311-23.229051 3.710508-9.541307 8.039093-20.225647 12.809747-31.970132 4.858658-11.744485 9.806343-23.759123 14.830777-36.033681 5.134951-12.279674 10.513448-23.759123 16.432251-34.449603 5.300726-10.68434 12.887518-16.427134 22.793122-17.222243 9.795087-0.795109 17.48114 5.742794 22.781866 19.60757 5.38873 12.809747 9.795087 24.113187 13.251815 34.007535 3.523243 9.889231 6.438643 19.071358 8.823969 27.641547 2.473331 8.481162 4.858658 16.603143 7.243985 24.378224 2.385327 7.774057 4.947685 16.162098 7.598049 25.255197 4.858658 13.33982 12.269441 21.644973 22.428825 24.819269 10.07138 3.180436 20.230764 2.915399 30.379914-0.795109 10.07138-3.710508 18.287505-9.977235 24.38334-18.812461C848.285023 262.961296 849.698209 253.242957 846.529029 242.553501z"  horiz-adv-x="1024" />

    
    <glyph glyph-name="plus-with-border" unicode="&#58971;" d="M977.529-128h-56.095v16.028h40.069c8.851 0 16.028 7.177 16.028 16.028v40.069h16.028v-56.097c0-8.849-7.177-16.028-16.028-16.028h-0.002zM977.529 88.366h16.028v-64.107h-16.028v64.107zM977.529 232.611h16.028v-64.107h-16.028v64.107zM977.529 376.854h16.028v-64.107h-16.028v64.107zM977.529 529.113h16.028v-72.123h-16.028v72.123zM977.529 673.356h16.028v-64.107h-16.028v64.107zM977.529 801.57c0 8.851-7.176 16.028-16.028 16.028h-40.069v16.028h56.095c8.851 0 16.028-7.176 16.028-16.028v-64.107h-16.028v48.081zM777.189-111.972h64.107v-16.028h-64.107zM777.189 833.625h64.107v-16.028h-64.107zM528.771 112.409h-24.040v216.366h-216.366v24.040h216.366v224.378h24.040v-224.378h224.38v-24.040h-224.38v-216.366zM632.947 833.625h64.107v-16.028h-64.107v16.028zM488.704 833.625h64.109v-16.028h-64.109v16.028zM336.445 833.625h72.121v-16.028h-72.121v16.028zM192.202-111.972h64.107v-16.028h-64.107v16.028zM192.202 833.625h64.107v-16.028h-64.107v16.028zM31.931-111.972v56.097h16.028v-40.069c0-8.849 7.175-16.028 16.028-16.028h48.081v-16.028h-64.107c-8.851 0-16.028 7.177-16.028 16.028h-0.002zM47.959 801.57v-48.081h-16.028v64.107c0 8.851 7.177 16.028 16.028 16.028h64.109v-16.028h-48.081c-8.851 0-16.028-7.175-16.028-16.028zM47.959 609.248h-16.028v64.107h16.028l0.002-64.107h-0.002zM47.959 456.989h-16.028v72.123h16.028l0.002-72.123h-0.002zM47.959 312.746h-16.028v64.107h16.028l0.002-64.107h-0.002zM47.959 168.504h-16.028v64.107h16.028l0.002-64.107h-0.002zM47.959 24.261h-16.028v64.107h16.028l0.002-64.107zM408.568-128h-72.121v16.028h72.121v-16.028zM552.813-128h-64.109v16.028h64.109v-16.028zM697.054-128h-64.107v16.028h64.107v-16.028z"  horiz-adv-x="1024" />

    
    <glyph glyph-name="iconfonticonfontsousuo1" unicode="&#58927;" d="M746.3013 239.9727c0 0-14.2549-18.8622-33.3428-37.3497l219.773-215.354 36.4768 34.1019L746.3013 239.9727zM824.3495 473.4274c0-213.7901-164.6831-374.2772-368.8031-374.2772C242.705 102.239 88.3684 269.8434 88.3684 473.1376c0 196.3739 166.1232 361.9626 367.1781 361.9626C659.6664 835.1002 824.3495 667.3559 824.3495 473.4274zM454.2033 786.0374c-174.9625 0-316.7702-141.9208-316.7702-318.9128 0-176.993 141.8077-319.8931 316.7702-319.8931 174.9865 0 321.0815 142.9001 321.0815 319.8931C775.2848 644.1176 629.1899 786.0374 454.2033 786.0374z"  horiz-adv-x="1024" />

    
    <glyph glyph-name="iconfontzhijiaxiao" unicode="&#58979;" d="M512.002-45.115c-247.435 0-447.957 200.576-447.957 447.954 0 247.435 200.523 447.957 447.957 447.957 247.379 0 447.953-200.523 447.953-447.957C959.956 155.461 759.38-45.115 512.002-45.115L512.002-45.115zM849.5 539.82c-16.409 1.63-40.955 19.212-61.914 46.241-24.837 32.136-35.737 65.622-26.466 79.163-65.342 60.176-152.759 97.253-249.175 97.253-95.232 0-181.531-36.183-246.593-94.836 12.363-11.688 1.74-47.477-24.665-81.581-22.87-29.612-50.174-47.985-66.296-46.294-17.645-42.196-27.533-88.378-27.533-136.869 0-198.609 163.44-359.461 365.141-359.461 201.587 0 365.136 160.851 365.136 359.461C877.084 451.385 867.253 497.568 849.5 539.82L849.5 539.82zM737.918 327.218c-108.491 0-150.461-111.582-150.461-111.582l0.896-140.35-73.487-1.399 0-0.229-7.361 0.113-7.247-0.113 0 0.229-75.005 1.399 0.734 140.349c0 0-34.387 111.582-142.823 111.582-67.812 0-94.729 0.563-94.729 0.563s-19.328 31.461-16.348 102.2c156.586 6.632 123.774 108.325 328.115 113.154l0 0.449c2.53 0 4.719-0.227 7.303-0.227 2.533 0 4.667 0.227 7.308 0.227l0-0.449c204.619-4.774 177.483-106.522 334.128-113.154 3.032-70.736-16.408-102.2-16.408-102.2S805.731 327.218 737.918 327.218L737.918 327.218zM507.801 511.783c-62.98 0-113.976-51.038-113.976-114.001 0-62.911 51.044-113.999 113.976-113.999 62.928 0 114.024 51.087 114.024 113.999C621.823 460.745 570.777 511.783 507.801 511.783L507.801 511.783z"  horiz-adv-x="1024" />

    
    <glyph glyph-name="guanbi" unicode="&#58906;" d="M511.999-128c-282.767 0-511.999 229.234-511.999 512.003 0 282.767 229.232 511.997 511.999 511.997 282.769 0 512.001-229.23 512.001-511.997 0-282.769-229.232-512.003-512.001-512.003zM511.999 831.998c-247.42 0-447.999-200.577-447.999-447.997 0-247.422 200.577-447.999 447.999-447.999 247.425 0 448.001 200.577 448.001 447.999-0 247.422-200.579 447.997-448.001 447.997zM557.434 383.821l135.583-135.581c12.497-12.499 12.497-32.758 0-45.257s-32.758-12.499-45.255 0l-135.586 135.586-136.507-136.507c-12.597-12.591-33.016-12.591-45.611 0-12.595 12.595-12.595 33.014 0 45.609l136.509 136.509-135.586 135.586c-12.499 12.497-12.499 32.758 0 45.253 12.497 12.501 32.756 12.501 45.255 0l135.588-135.586 137.515 137.515c12.593 12.597 33.016 12.597 45.611 0 12.593-12.593 12.593-33.016 0-45.607l-137.517-137.519z"  horiz-adv-x="1024" />

    
    <glyph glyph-name="baomingjiaxiao" unicode="&#58940;" d="M512 444.548844c115.543919 0 209.574964 100.670033 209.574964 224.385013S627.543919 893.382707 512 893.382707c-115.543919 0-209.574964-100.670033-209.574964-224.385013S396.456081 444.548844 512 444.548844zM487.742161 117.068013l193.105168 274.241257c-41.940527 10.852191-100.031669 22.023565-168.017455 22.023565-4.596222 0-123.140453 9.44779-246.280905-47.047441 0 0-15.639923-1.59591-46.281404-48.898697-46.919768-76.284521-118.799576-187.487563-140.057104-224.44885-14.873886-24.321676-52.345864-73.220373-27.960352-124.481017 26.811296-51.069135 49.664734-89.817842 58.601833-96.392993 27.64117 0 80.689234 0 115.799264 0C224.480768-40.224924 305.936039 103.981547 487.742161 117.068013L487.742161 117.068013zM944.49174 91.661118c-35.620722 61.15529-114.905555 185.380961-121.289196 196.488498-8.362571 14.61854-34.40783 70.666916-83.115018 85.668475-5.234586 1.59591-11.93741 3.766349-20.044636 6.319805L534.981111 117.323359c176.763045-10.660682 264.155103-148.419675 264.155103-245.068013l105.968456-0.191509c0 0 11.23521-1.085219 66.581385 99.201795C992.305218 23.930678 969.834798 46.784116 944.49174 91.661118zM511.872327 52.146375c-121.991397 0-220.810174-79.093323-220.810174-180.146375 155.505517 0 256.813914 0 441.684184 0C732.746338-26.946948 633.927561 52.146375 511.872327 52.146375L511.872327 52.146375z"  horiz-adv-x="1024" />

    
    <glyph glyph-name="zikaojiazhao" unicode="&#59001;" d="M821.568 253.824c-11.456 10.752-16.192 29.952-76.928 38.72-60.8 8.704-56.448 38.464-56.448 39.04 0.384 11.776 0.704 23.232 0.704 23.232s32.576 8.512 41.792 44.352c19.584 7.68 17.024 12.608 18.88 22.528 0 0 5.888 40.256-7.296 39.424 0 0-8.64 0-6.464 9.216 0.704 15.36 0.704 45.312-0.384 55.488-1.088 10.24-8.832 38.016-30.912 42.112-22.08 4.16-13.248 1.984-20.544 3.072-7.296 1.088-5.312 5.056-18.88 5.056L636.736 581.824c-13.696 0-22.4-21.824-29.76-22.912C599.68 557.824 597.952 562.112 582.784 559.296 560.768 555.136 563.84 525.888 562.752 515.456c-1.088-10.24-2.944-38.272-0.96-47.424 2.112-9.216-4.48-8.256-4.48-8.256-15.808 0-10.88-39.424-10.88-39.424 2.368-10.368 8.96-11.712 23.744-20.8C577.152 366.08 609.28 354.496 609.28 354.496S609.344 332.992 609.472 328.32C609.024 326.4 612.928 299.584 560.96 292.16c-60.8-8.704-71.296-28.096-82.752-38.72-11.456-10.752-12.736-61.824-12.736-61.824l366.336 0C832.192 191.872 833.024 243.072 821.568 253.824zM191.808 263.36l227.776 0 0-71.616L191.808 191.744 191.808 263.36zM191.808 406.656l227.776 0 0-71.616L191.808 335.04 191.808 406.656 191.808 406.656zM191.808 549.824l227.776 0 0-71.616L191.808 478.208 191.808 549.824zM864.192 187.392c-70.72-133.824-211.264-225.088-373.184-225.088-232.96 0-421.696 188.864-421.696 421.696s188.864 421.696 421.696 421.696c221.888 0 403.776-171.392 420.544-388.992l69.504 0c-16.896 256-229.824 458.432-490.048 458.432C219.776 875.136 0 655.232 0 384s219.904-491.136 491.136-491.136c180.928 0 338.944 97.856 424.192 243.52L864.192 187.392zM869.888 416.704l77.056-133.504L1024 416.704 869.888 416.704z"  horiz-adv-x="1024" />

    
    <glyph glyph-name="yuyue" unicode="&#59184;" d="M450.1 64 108.4 64c-24.5 0-44.4 19.9-44.4 44.4L64 512l832 0L896 723.6c0 59.8-48.6 108.4-108.4 108.4L704 832l0 64-64 0 0-64L256 832l0 64-64 0 0-64-83.6 0C48.6 832 0 783.4 0 723.6l0-615.2c0-59.8 48.6-108.4 108.4-108.4l341.7 0c17.7 0 32 14.3 32 32S467.8 64 450.1 64zM64 723.6c0 24.5 19.9 44.4 44.4 44.4L192 768l0-96 64 0 0 96 384 0 0-96 64 0 0 96 83.6 0c24.5 0 44.4-19.9 44.4-44.4l0-147.6L64 576 64 723.6zM160 416l224 0 0-64-224 0 0 64ZM160 224l224 0 0-64-224 0 0 64ZM800 320 736 320 736 224 736 160 800 160 896 160 896 224 800 224ZM949 373c-48.4 48.4-112.6 75-181 75s-132.7-26.6-181-75c-48.4-48.4-75-112.6-75-181s26.6-132.7 75-181c48.4-48.4 112.6-75 181-75s132.7 26.6 181 75c48.4 48.4 75 112.6 75 181S997.4 324.7 949 373zM768 0c-105.9 0-192 86.1-192 192s86.1 192 192 192 192-86.1 192-192S873.9 0 768 0z"  horiz-adv-x="1024" />

    
    <glyph glyph-name="30jiantouxiangshangfill" unicode="&#58994;" d="M325.456471 33.719339M882.057788 33.719339M236.028491 18.839618M960.132455 18.839618M63.683483 107.263002M958.469023 107.263002M64.77753 37.207902M861.417121 157.272625c41.604731 0 65.233383 54.963795 34.928639 85.258218L547.071415 591.808628c-20.029996 20.031716-49.822121 20.031716-69.853837 0L127.955275 242.530843c-31.085714-31.073673-5.136514-85.258218 35.441258-85.258218L861.417121 157.272625 861.417121 157.272625zM959.523505 37.207902"  horiz-adv-x="1024" />

    
    <glyph glyph-name="tianjia" unicode="&#58907;" d="M512 831.419146c-248.312412 0-449.610044-200.316282-449.610044-447.418123s201.297632-447.419146 449.610044-447.419146 449.610044 200.316282 449.610044 447.418123S760.313435 831.419146 512 831.419146zM512-7.595746c-216.272695 0-391.595746 175.323051-391.595746 391.595746s175.323051 391.595746 391.595746 391.595746 391.595746-175.323051 391.595746-391.595746S728.272695-7.595746 512-7.595746zM700.546214 354.993363 323.453786 354.993363c-15.954367 0-29.006637 13.053294-29.006637 29.006637l0 0c0 15.954367 13.053294 29.006637 29.006637 29.006637l377.092427 0c15.954367 0 29.006637-13.053294 29.006637-29.006637l0 0C729.552851 368.046656 716.499557 354.993363 700.546214 354.993363zM482.992339 195.453786 482.992339 572.546214c0 15.954367 13.053294 29.006637 29.006637 29.006637l0 0c15.954367 0 29.006637-13.053294 29.006637-29.006637l0-377.092427c0-15.954367-13.053294-29.006637-29.006637-29.006637l0 0C496.045633 166.447149 482.992339 179.500443 482.992339 195.453786z"  horiz-adv-x="1024" />

    
    <glyph glyph-name="touxiang2" unicode="&#58932;" d="M512.067538-62.852234l-3.677762 0.024559c-118.471229 0.959861-229.42218 47.982828-312.458361 132.426055C114.075105 152.803407 67.692728 268.72865 68.678172 387.647063 70.701249 632.03305 269.529643 830.853257 511.907902 830.853257l3.64911 0c248.898767-15.396665 441.706027-213.280548 439.765839-450.528973C953.298751 135.952624 754.456031-62.852234 512.067538-62.852234L512.067538-62.852234zM557.445028-33.476183c206.613708 22.847357 369.227296 199.817931 371.000686 414.023548C930.270269 603.516576 748.550531 789.511687 514.731204 803.999656l0 0-2.823302-0.023536c-227.675396 0-414.446173-186.863898-416.349523-416.553161-0.921999-111.828948 42.651402-220.814128 119.534444-298.978349 77.994352-79.32465 182.215018-123.498732 293.456588-124.392078l3.532453-0.023536C527.403828-35.971004 542.538527-35.124729 557.445028-33.476183M514.731204 803.999656M511.485277 323.053929c-95.568612 0-173.315324 78.533634-173.315324 175.048805 0 96.499821 77.746712 175.023222 173.315324 175.023222 95.559403 0 173.296905-78.523401 173.296905-175.023222C684.782182 401.587564 607.045703 323.053929 511.485277 323.053929L511.485277 323.053929zM511.485277 646.249843c-80.751139 0-146.435117-66.460668-146.435117-148.147108 0-81.697697 65.685002-148.171668 146.435117-148.171668 80.730673 0 146.415674 66.474994 146.415674 148.171668C657.900951 579.789175 592.21595 646.249843 511.485277 646.249843L511.485277 646.249843zM511.485277 646.249843M797.911752 57.942923c-7.42818 0-13.440104 6.011924-13.440104 13.434987 0 120.535237-69.046562 226.78819-167.911244 258.366396-7.060813 2.255367-10.970866 9.815553-8.700149 16.876366 2.257413 7.074116 9.776667 10.984169 16.890692 8.713452 109.85806-35.080983 186.596815-151.845337 186.596815-283.957237C811.351855 63.95587 805.340955 57.942923 797.911752 57.942923L797.911752 57.942923zM797.911752 57.942923M226.063689 57.942923c-7.429203 0-13.440104 6.011924-13.440104 13.434987 0 130.879839 75.844386 247.356644 184.436616 283.249109 7.006578 2.339278 14.643512-1.509377 16.968463-8.544607 2.334161-7.045463-1.499144-14.658861-8.544607-16.977673-97.723695-32.301683-165.979242-138.29267-165.979242-257.720689C239.503792 63.95587 233.491869 57.942923 226.063689 57.942923L226.063689 57.942923zM226.063689 57.942923"  horiz-adv-x="1024" />

    
    <glyph glyph-name="riqi" unicode="&#58891;" d="M279.272727 640l23.272727 0c18.618182 0 23.272727 4.654545 23.272727 23.272727L325.818182 826.181818c0 18.618182-4.654545 23.272727-23.272727 23.272727l-23.272727 0c-18.618182 0-23.272727-4.654545-23.272727-23.272727l0-162.909091C256 651.636364 260.654545 640 279.272727 640M721.454545 640l23.272727 0c18.618182 0 23.272727 4.654545 23.272727 23.272727L768 826.181818c0 18.618182-4.654545 23.272727-23.272727 23.272727l-23.272727 0c-18.618182 0-23.272727-4.654545-23.272727-23.272727l0-162.909091C698.181818 651.636364 702.836364 640 721.454545 640M884.363636 756.363636l-69.818182 0 0-46.545455 69.818182 0c37.236364 0 69.818182-32.581818 69.818182-69.818182l0-46.545455L69.818182 595.781818 69.818182 640c0 37.236364 32.581818 69.818182 69.818182 69.818182l69.818182 0L209.454545 756.363636 139.636364 756.363636c-72.145455 0-116.363636-48.872727-116.363636-116.363636l0-628.363636c0-67.490909 44.218182-93.090909 116.363636-93.090909l744.727273 0c67.490909 0 116.363636 18.618182 116.363636 93.090909L1000.727273 640C993.745455 707.490909 956.509091 756.363636 884.363636 756.363636l6.981818-9.309091L884.363636 756.363636zM884.363636-34.909091 139.636364-34.909091c-37.236364 0-69.818182 9.309091-69.818182 46.545455L69.818182 523.636364l884.363636 0 0-512C954.181818-32.581818 926.254545-34.909091 884.363636-34.909091l-16.290909 9.309091L884.363636-34.909091zM868.072727-25.6M372.363636 756.363636l279.272727 0 0-46.545455L372.363636 709.818182 372.363636 756.363636 372.363636 756.363636 372.363636 756.363636zM372.363636 756.363636M530.618182 456.145455c-53.527273 0-32.581818-65.163636-100.072727-79.127273l-20.945455-6.981818c-32.581818-6.981818-39.563636-2.327273-39.563636-27.927273 0-25.6 13.963636-27.927273 25.6-27.927273L488.727273 314.181818l0-228.072727c0-32.581818 2.327273-53.527273 34.909091-53.527273 32.581818 0 34.909091 25.6 34.909091 53.527273L558.545455 416.581818C558.545455 449.163636 544.581818 456.145455 530.618182 456.145455L530.618182 456.145455 530.618182 456.145455zM530.618182 456.145455"  horiz-adv-x="1024" />

    
    <glyph glyph-name="riqi-copy" unicode="&#58972;" d="M960-128h-896c-35.344 0-64 28.656-64 64v768c0 35.344 28.656 64 64 64h128v64c0 35.344 28.656 64 64 64s64-28.656 64-64v-64h384v64c0 35.344 28.656 64 64 64s64-28.656 64-64v-64h128c35.344 0 64-28.656 64-64v-768c0-35.344-28.656-64-64-64zM960 704h-128c0-35.344-28.656-64-64-64s-64 28.656-64 64h-384c0-35.344-28.656-64-64-64s-64 28.656-64 64h-128v-768h896v768zM292.432 459.872c7.568 7.76 13.296 18.128 17.184 31.104 2.256 7.776 3.376 13.552 3.376 17.344h73.232v-433.76h-89.84v299.152h-104.928v58.016c27.616 1.2 46.944 3.008 58 5.392 17.6 3.792 31.92 11.376 42.976 22.752zM678.064 511.312c56.816 0 96.672-19.44 119.536-58.336 22.88-38.88 34.304-94.128 34.304-165.712 0-71.616-11.424-126.752-34.304-165.44-22.864-38.688-62.72-58.032-119.536-58.032-56.816 0-96.672 19.344-119.536 58.032-22.88 38.688-34.32 93.824-34.32 165.44 0 71.584 11.44 126.832 34.32 165.712 22.864 38.896 62.72 58.336 119.536 58.336zM626.368 172.832c8.416-26.432 25.648-39.632 51.696-39.632s43.12 13.2 51.232 39.632c8.096 26.432 12.16 64.56 12.16 114.432 0 52.24-4.064 90.928-12.16 116.064-8.112 25.12-25.184 37.68-51.232 37.68-26.048 0-43.28-12.56-51.696-37.68-8.416-25.136-12.608-63.824-12.608-116.064 0-49.872 4.192-88 12.608-114.432z"  horiz-adv-x="1024" />

    
    <glyph glyph-name="sandian" unicode="&#58929;" d="M532.45952 496.61952c33.93536 0 61.46048 27.50464 61.46048 61.44 0 33.93536-27.52512 61.44-61.46048 61.44-33.93536 0-61.46048-27.50464-61.46048-61.44C471.01952 524.14464 498.52416 496.61952 532.45952 496.61952zM532.45952 230.4c-33.93536 0-61.46048-27.50464-61.46048-61.44s27.52512-61.44 61.46048-61.44c33.93536 0 61.46048 27.50464 61.46048 61.44S566.39488 230.4 532.45952 230.4zM532.45952 424.96c-33.93536 0-61.46048-27.50464-61.46048-61.44 0-33.93536 27.52512-61.44 61.46048-61.44 33.93536 0 61.46048 27.50464 61.46048 61.44C593.92 397.45536 566.39488 424.96 532.45952 424.96z"  horiz-adv-x="1024" />

    
    <glyph glyph-name="12" unicode="&#58913;" d="M512 732.08579c-192.242396 0-348.084767-155.843394-348.084767-348.08579 0-192.242396 155.842371-348.084767 348.084767-348.084767S860.084767 191.757604 860.084767 384C860.084767 576.242396 704.241372 732.08579 512 732.08579zM616.292298 366.603795 511.86697 366.603795c-8.010441 0-14.503319 6.492878-14.503319 14.503319L497.363651 555.150008c0 8.010441 6.492878 14.503319 14.503319 14.503319s14.503319-6.492878 14.503319-14.503319L526.370289 395.610432l89.922009 0c8.010441 0 14.503319-6.492878 14.503319-14.503319S624.302739 366.603795 616.292298 366.603795zM512 833.610044c-248.312412 0-449.610044-201.297632-449.610044-449.610044s201.297632-449.610044 449.610044-449.610044c248.313435 0 449.610044 201.297632 449.610044 449.610044S760.312412 833.610044 512 833.610044zM512 6.907573c-208.262254 0-377.092427 168.830173-377.092427 377.092427s168.830173 377.092427 377.092427 377.092427 377.091404-168.830173 377.091404-377.092427S720.262254 6.907573 512 6.907573z"  horiz-adv-x="1024" />

    
    <glyph glyph-name="1-copy" unicode="&#58998;" d="M365.965 693.014l-282.31-282.309c-0.888-0.888-1.73-1.824-2.528-2.797-0.065-0.079-0.125-0.161-0.188-0.239-0.714-0.887-1.391-1.804-2.024-2.753-0.087-0.129-0.167-0.262-0.252-0.392-0.59-0.91-1.145-1.841-1.657-2.802-0.074-0.139-0.142-0.279-0.215-0.421-0.497-0.962-0.957-1.944-1.371-2.952-0.048-0.119-0.092-0.236-0.139-0.356-0.409-1.025-0.779-2.073-1.099-3.141-0.027-0.089-0.049-0.178-0.076-0.267-0.316-1.083-0.588-2.18-0.805-3.3-0.014-0.072-0.024-0.144-0.039-0.216-0.212-1.116-0.379-2.249-0.49-3.396-0.005-0.062-0.008-0.124-0.014-0.188-0.105-1.148-0.168-2.31-0.167-3.486s0.061-2.338 0.167-3.486c0.006-0.064 0.008-0.126 0.014-0.188 0.111-1.148 0.278-2.28 0.49-3.396 0.014-0.072 0.025-0.144 0.039-0.217 0.219-1.119 0.49-2.218 0.806-3.299 0.025-0.089 0.048-0.178 0.076-0.267 0.319-1.067 0.689-2.115 1.099-3.142 0.047-0.119 0.091-0.235 0.14-0.355 0.414-1.008 0.874-1.99 1.37-2.952 0.073-0.141 0.141-0.281 0.215-0.421 0.512-0.96 1.066-1.893 1.657-2.801 0.085-0.132 0.164-0.263 0.252-0.392 0.633-0.95 1.309-1.867 2.024-2.753 0.063-0.078 0.123-0.161 0.188-0.239 0.796-0.972 1.638-1.907 2.528-2.797v0l282.31-282.312c14.749-14.749 38.662-14.749 53.411 0 7.375 7.374 11.062 17.038 11.062 26.705 0 9.665-3.688 19.331-11.062 26.705l-217.836 217.837h707.313c20.86 0 37.767 16.908 37.767 37.767 0 20.858-16.908 37.767-37.767 37.767h-707.315l217.836 217.837c7.375 7.374 11.062 17.040 11.062 26.705s-3.688 19.332-11.062 26.706c-14.75 14.748-38.662 14.748-53.409-0.001z"  horiz-adv-x="1024" />

    
    <glyph glyph-name="shoujihaoma1" unicode="&#58908;" d="M678.300049 824.748213 348.069929 824.748213c-45.571918 0-82.492806-36.924981-82.492806-82.497922l0-714.956412c0-45.571918 36.920888-82.496899 82.492806-82.496899l330.229097 0c45.571918 0 82.491783 36.924981 82.491783 82.496899L760.790808 742.251314C760.791831 787.823232 723.871967 824.748213 678.300049 824.748213L678.300049 824.748213zM705.795263 27.294902c0-15.175631-12.323677-27.501354-27.495214-27.501354L348.069929-0.206452c-15.171538 0-27.496238 12.325723-27.496238 27.501354L320.573691 742.251314c0 15.175631 12.323677 27.500331 27.496238 27.500331l330.229097 0c15.171538 0 27.495214-12.3247 27.495214-27.500331L705.79424 27.294902 705.795263 27.294902zM513.222339 137.135566c-30.314423 0-54.861492-24.573675-54.861492-54.838979 0-30.28577 24.547069-54.862515 54.861492-54.862515 30.31033 0 54.862515 24.577768 54.862515 54.862515C568.084854 112.561891 543.532669 137.135566 513.222339 137.135566L513.222339 137.135566zM568.219931 742.251314 458.226794 742.251314c-15.189957 0-27.501354-12.310374-27.501354-27.496238 0-15.190981 12.31549-27.501354 27.501354-27.501354l109.99416 0c15.185864 0 27.495214 12.30935 27.495214 27.501354C595.715145 729.939917 583.405795 742.251314 568.219931 742.251314L568.219931 742.251314zM568.219931 742.251314"  horiz-adv-x="1024" />

    
    <glyph glyph-name="renzheng1" unicode="&#58881;" d="M511.953455-106.146909c-142.987636 0-408.901818 218.763636-408.901818 425.634909L103.051636 731.578182l40.657455 0.674909c0.861091 0 91.624727 1.931636 185.274182 39.936 96.046545 39.028364 157.998545 83.828364 158.580364 84.247273l24.273455 17.687273 24.482909-17.687273c0.581818-0.442182 62.533818-45.218909 158.580364-84.247273 93.649455-38.004364 184.413091-39.936 185.367273-39.936l40.471273-0.674909 0.186182-412.090182C920.948364 112.64 655.034182-106.146909 511.953455-106.146909L511.953455-106.146909zM185.623273 652.590545l0-333.079273c0-159.953455 231.633455-343.063273 326.330182-343.063273 94.72 0 326.330182 183.109818 326.330182 343.063273L838.283636 652.590545c-40.471273 4.375273-106.170182 15.429818-174.405818 43.124364-69.934545 28.439273-123.042909 59.345455-151.947636 77.754182-28.811636-18.408727-81.989818-49.314909-151.854545-77.754182C291.793455 667.997091 226.071273 656.965818 185.623273 652.590545L185.623273 652.590545zM490.077091 164.654545l-173.614545 147.898182 53.387636 62.813091 111.383273-94.813091 211.386182 243.525818 62.417455-54.155636L490.077091 164.654545 490.077091 164.654545zM490.077091 164.654545"  horiz-adv-x="1024" />

    
    <glyph glyph-name="dian" unicode="&#58896;" d="M513.365333 162.816c16.384 0 30.72-6.144 42.325333-18.432 12.288-12.288 17.749333-26.624 17.749333-43.690667s-6.144-31.402667-17.749333-43.690667c-12.970667-11.605333-27.306667-17.749333-43.690667-17.749333-8.874667 0-17.066667 1.365333-24.576 4.778667-7.509333 3.413333-14.336 7.509333-19.797333 12.970667-5.461333 5.461333-10.24 12.288-12.970667 19.797333-3.413333 7.509333-4.778667 15.701333-4.778667 24.576 0 17.066667 6.144 31.402667 17.749333 43.690667C481.28 156.672 496.298667 162.816 513.365333 162.816z"  horiz-adv-x="1024" />

    
    <glyph glyph-name="huiyuan" unicode="&#59019;" d="M472.96512 603.58656c-41.79968 28.20096-43.8784 82.11456-14.42816 113.445547 29.310293 31.187627 78.27456 31.368533 107.789653 0.576853 29.846187-31.136427 28.2624-85.302613-13.86496-114.029227 53.456213-58.845867 106.850987-117.62688 160.433493-176.612693 2.048 1.30048 3.898027 2.430293 5.70368 3.62496 49.5104 32.723627 99.034453 65.426773 148.497067 98.22208 7.092907 4.703573 14.503253 6.710613 22.777173 4.1984 11.9296-3.621547 19.11808-15.377067 17.1008-27.97568-12.0832-75.403947-24.22784-150.801067-36.293973-226.208427-11.096747-69.348693-22.1184-138.71104-33.184427-208.063147-1.235627-7.744853-2.583893-15.469227-3.81952-23.210667-2.402987-15.090347-11.618987-22.96832-27.00288-22.97856-24.576-0.013653-49.148587-0.003413-73.724587-0.003413-170.99776 0-341.99552 0-512.99328 0-17.250987 0-25.883307 7.70048-28.562773 24.80128-6.130347 39.069013-12.386987 78.12096-18.7392 117.15584-2.85696 17.565013 7.676587 30.63808 25.565867 31.06816 8.014507 0.19456 16.039253 0.064853 24.060587 0.06144 161.26976-0.0512 322.53952-0.098987 483.80928-0.21504 3.884373-0.003413 7.92576-0.24576 11.6224-1.314133 10.94656-3.16416 18.428587-14.636373 17.145173-25.535147-1.447253-12.291413-10.318507-21.633707-22.275413-22.244693-11.403947-0.58368-22.85568-0.221867-34.286933-0.21504-148.98176 0.078507-297.96352 0.170667-446.94528 0.256-1.675947 0-3.34848 0-5.761707 0 3.9936-25.019733 7.901867-49.5104 11.895467-74.543787 2.106027 0 3.928747 0 5.748053 0 179.70176 0 359.40352 0.013653 539.10528-0.078507 4.0448-0.003413 5.77536 0.67584 6.495573 5.266773 11.73504 74.594987 23.712427 149.15584 35.66592 223.716693 8.014507 49.988267 16.073387 99.97312 24.101547 149.957973 0.187733 1.160533 0.218453 2.34496 0.43008 4.703573-2.307413-1.447253-3.928747-2.41664-5.505707-3.457707-39.12704-25.856-78.247253-51.72224-117.37088-77.581653-15.22688-10.06592-26.17344-8.67328-38.32832 4.7104-57.2416 63.03744-114.510507 126.0544-171.758933 189.085013-1.020587 1.122987-1.931947 2.351787-3.167573 3.867307-8.946347-9.82016-17.435307-19.111253-25.89696-28.42624-49.104213-54.063787-98.2016-108.130987-147.3024-162.198187-0.802133-0.884053-1.611093-1.764693-2.420053-2.64192-11.88864-12.909227-23.033173-14.322347-37.546667-4.73088-39.406933 26.053973-78.803627 52.114773-118.207147 78.17216-1.539413 1.017173-3.106133 1.993387-5.444267 3.49184 2.34496-14.66368 4.539733-28.398933 6.734507-42.134187 6.864213-42.922667 13.806933-85.835093 20.548267-128.77824 2.044587-13.01504-7.615147-25.176747-21.203627-27.378347-12.673707-2.054827-25.32352 7.069013-27.528533 20.322987-4.563627 27.409067-8.881493 54.85568-13.28128 82.292053-7.396693 46.117547-14.854827 92.224853-22.050133 138.37312-0.822613 5.270187-1.273173 11.083093 0.078507 16.114347 4.348587 16.206507 22.981973 22.562133 37.51936 13.110613 19.15904-12.455253 38.15424-25.163093 57.217707-37.76512 32.576853-21.53472 65.153707-43.072853 98.31424-64.996693C365.919573 485.76512 419.423573 544.658773 472.96512 603.58656zM512.907947 641.938773c13.59872 0.075093 24.763733 11.4176 24.528213 24.920747-0.232107 13.380267-11.308373 24.306347-24.66816 24.333653-13.68064 0.027307-24.695467-11.021653-24.64768-24.7296C488.168107 652.680533 499.101013 641.86368 512.907947 641.938773z"  horiz-adv-x="1024" />

    
    <glyph glyph-name="richeng" unicode="&#59113;" d="M454.79616 318.580035 234.274698 318.580035c-11.369955 0-20.586874-9.216919-20.586874-20.586874s9.216919-20.586874 20.586874-20.586874l220.521462 0c11.369955 0 20.586874 9.216919 20.586874 20.586874S466.166115 318.580035 454.79616 318.580035zM570.740846 277.406287l220.521462 0c11.369955 0 20.586874 9.216919 20.586874 20.586874s-9.216919 20.586874-20.586874 20.586874L570.740846 318.580035c-11.369955 0-20.586874-9.216919-20.586874-20.586874S559.370891 277.406287 570.740846 277.406287zM454.79616 169.91104 234.274698 169.91104c-11.369955 0-20.586874-9.216919-20.586874-20.586874s9.216919-20.586874 20.586874-20.586874l220.521462 0c11.369955 0 20.586874 9.216919 20.586874 20.586874S466.166115 169.91104 454.79616 169.91104zM791.262308 169.91104 570.740846 169.91104c-11.369955 0-20.586874-9.216919-20.586874-20.586874s9.216919-20.586874 20.586874-20.586874l220.521462 0c11.369955 0 20.586874 9.216919 20.586874 20.586874S802.632263 169.91104 791.262308 169.91104zM886.62012 729.81712 774.464737 729.81712 774.464737 821.313997c0 11.411911-9.250688 20.658506-20.658506 20.658506-11.411911 0-20.658506-9.246595-20.658506-20.658506l0-91.4979L292.13243 729.816097 292.13243 821.44191c0 11.341303-9.193383 20.529569-20.529569 20.529569-11.337209 0-20.529569-9.18929-20.529569-20.529569l0-91.625814L138.916886 729.816097c-41.295522 0-74.769914-33.474392-74.769914-74.769914l0-635.547851c0-41.295522 33.474392-74.769914 74.769914-74.769914l747.703233 0c41.295522 0 74.769914 33.474392 74.769914 74.769914L961.390034 655.046183C961.391057 696.342728 927.915641 729.81712 886.62012 729.81712zM143.764288 687.826773l738.009454 0c20.380166 0 36.900422-16.520255 36.900422-36.900422l0-145.421021-811.809273 0L106.86489 650.926352C106.863866 671.306518 123.384122 687.826773 143.764288 687.826773zM881.772718-13.281235 143.764288-13.281235c-20.380166 0-36.900422 16.520255-36.900422 36.900422l0 440.369589 811.809273 0 0-440.369589C918.67314 3.23902 902.152884-13.281235 881.772718-13.281235z"  horiz-adv-x="1024" />

    
    <glyph glyph-name="xiajiantou" unicode="&#58918;" d="M192.875 541.562c0 9.625 3.938 17.938 11.813 25s17.188 10.563 28.063 10.531h558.094c10.813 0 20.156-3.5 28.063-10.531 7.938-7 11.875-15.313 11.813-25-0.063-9.656-4-18-11.813-25l-279.033-248.625c-7.875-7.031-17.234-10.531-28.078-10.531s-20.203 3.531-28.047 10.531l-279.062 248.625c-7.875 7-11.813 15.344-11.813 25z"  horiz-adv-x="1024" />

    
    <glyph glyph-name="tixing" unicode="&#59002;" d="M451.561006 402.651859C450.177113 398.868889 449.421527 394.778003 449.421527 390.507511 449.421527 371.164117 464.973057 355.453719 484.191334 355.453719L676.436186 355.453719C695.653372 355.453719 711.205992 371.164117 711.205992 390.507511 711.205992 409.881657 695.653373 425.559108 676.436186 425.559108L521.131121 425.559108 521.131121 559.539541C521.131121 578.877445 505.51205 594.592237 486.363493 594.592237 467.146307 594.592237 451.561006 578.877445 451.561006 559.539541L451.561006 402.651859ZM486.363493 846.187054C611.04263 846.187054 724.039598 795.149399 805.797342 712.7195L805.933507 712.7195C887.696691 630.293995 938.284919 516.337867 938.284919 390.507511 938.284919 264.808945 887.696691 150.889062 805.933507 68.463555L805.797342 68.326277C724.038513-14.104719 611.04263-65.174228 486.363493-65.174228 361.550366-65.174228 248.520716-14.171716 166.724849 68.326277L166.724849 68.463555C84.964931 150.889062 34.340754 264.808945 34.340754 390.507511 34.340754 516.337867 84.964931 630.293995 166.724849 712.7195 248.520716 795.181248 361.550366 846.187054 486.363493 846.187054L486.363493 846.187054 486.363493 846.187054 486.363493 846.187054ZM756.838775 663.222684C687.642308 732.948081 591.958344 776.082762 486.363494 776.082762 380.734873 776.082762 285.087948 732.917329 215.8893 663.15569 146.692831 593.424802 103.8771 496.99557 103.8771 390.507511 103.8771 283.979915 146.692831 187.58473 215.820671 117.823092L215.8893 117.888983C285.087948 48.127345 380.733783 4.930062 486.363494 4.930062 591.958344 4.930062 687.642308 48.127345 756.838775 117.823092 825.967705 187.58473 868.747489 283.979915 868.747489 390.50751 868.747489 496.99557 825.967705 593.424801 756.770147 663.155689L756.838775 663.222684 756.838775 663.222684 756.838775 663.222684ZM186.792817 887.914884C201.696185 900.097719 223.563756 897.804582 235.686019 882.780587 247.771245 867.784048 245.532635 845.671978 230.625998 833.4529L95.727688 722.988093C80.82323 710.770115 58.920801 713.062154 46.801805 728.090541 34.713312 743.11893 37.396375 765.53851 52.300834 777.757587L186.792817 887.914884 186.792817 887.914884 186.792817 887.914884ZM785.900401 887.914884C770.96435 900.097719 749.094598 897.804582 737.0072 882.780587 724.852251 867.784048 727.160579 845.671978 742.034541 833.4529L876.964441 722.988095C891.83404 710.770117 913.772414 713.062154 925.857642 728.090543 937.945047 743.118931 935.295754 765.538511 920.357526 777.757588L785.900401 887.914884 785.900401 887.914884 785.900401 887.914884Z"  horiz-adv-x="1024" />

    
    <glyph glyph-name="chevron-tiny-down" unicode="&#58898;" d="M703.549 447.913l-45.28 45.28-146.536-146.536-146.536 146.536-45.28-45.28 191.824-191.808z"  horiz-adv-x="1024" />

    
    <glyph glyph-name="dian1" unicode="&#58885;" d="M512 384m-128 0a4 4 0 1 0 256 0 4 4 0 1 0-256 0Z"  horiz-adv-x="1024" />

    
    <glyph glyph-name="shaixuan" unicode="&#58933;" d="M905.776 58.111l-465.554 0c-14.287 0-25.864 12.161-25.864 27.158l0 54.315c0 14.997 11.577 27.157 25.864 27.157l465.554 0c14.281 0 25.864-12.161 25.864-27.157l0-54.315c0-14.997-11.582-27.158-25.864-27.158l0 0zM905.776 329.685l-465.554 0c-14.287 0-25.864 12.161-25.864 27.157l0 54.315c0 14.997 11.577 27.157 25.864 27.157l465.554 0c14.281 0 25.864-12.161 25.864-27.157l0-54.315c0-14.998-11.582-27.157-25.864-27.157l0 0zM905.776 601.259l-465.554 0c-14.287 0-25.864 12.161-25.864 27.157l0 54.315c0 14.997 11.577 27.158 25.864 27.158l465.554 0c14.281 0 25.864-12.161 25.864-27.158l0-54.315c0-14.997-11.582-27.157-25.864-27.157l0 0zM285.038 58.111l-51.729 0c-14.287 0-25.864 12.161-25.864 27.158l0 54.315c0 14.997 11.577 27.157 25.864 27.157l51.729 0c14.281 0 25.864-12.161 25.864-27.157l0-54.315c0-14.997-11.581-27.158-25.864-27.158l0 0zM285.038 329.685l-51.729 0c-14.287 0-25.864 12.161-25.864 27.157l0 54.315c0 14.997 11.577 27.157 25.864 27.157l51.729 0c14.281 0 25.864-12.161 25.864-27.157l0-54.315c0-14.998-11.581-27.157-25.864-27.157l0 0zM285.038 601.259l-51.729 0c-14.287 0-25.864 12.161-25.864 27.157l0 54.315c0 14.997 11.577 27.158 25.864 27.158l51.729 0c14.281 0 25.864-12.161 25.864-27.158l0-54.315c0-14.997-11.581-27.157-25.864-27.157l0 0z"  horiz-adv-x="1138" />

    
    <glyph glyph-name="faxian" unicode="&#58884;" d="M512 309.031c-144.724 0-262.466 117.742-262.466 262.466 0 144.724 117.742 262.465 262.466 262.465s262.465-117.742 262.465-262.465c0.001-144.725-117.74-262.466-262.465-262.466zM512 785.354c-117.922 0-213.859-95.936-213.859-213.858s95.937-213.859 213.859-213.859c117.921 0 213.858 95.937 213.858 213.859s-95.936 213.858-213.858 213.858zM933.647-63.014c-12.119 0-22.613 9.040-24.129 21.376-3.614 29.423-10.52 58.441-20.523 86.247-57.008 158.457-208.511 264.919-376.995 264.919-168.484 0-319.987-106.462-376.995-264.917-10.005-27.809-16.91-56.827-20.523-86.248-1.639-13.343-13.779-22.833-27.127-21.192-13.343 1.639-22.831 13.784-21.192 27.127 4.054 33.013 11.805 65.58 23.035 96.794 15.429 42.887 37.292 83.101 64.983 119.525 27.396 36.038 59.949 67.659 96.757 93.987 76.47 54.697 166.744 83.607 261.063 83.607s184.593-28.91 261.063-83.607c36.807-26.328 69.361-57.95 96.756-93.988 27.691-36.425 49.554-76.638 64.984-119.525 11.229-31.213 18.979-63.778 23.035-96.794 1.639-13.343-7.849-25.487-21.192-27.127-1.007-0.124-2.009-0.184-2.998-0.184z"  horiz-adv-x="1024" />

    
    <glyph glyph-name="shenheren" unicode="&#58903;" d="M496.988 354.918c-142.766 0-258.888 116.122-258.888 258.888 0 142.766 116.122 258.908 258.888 258.908s258.888-116.142 258.888-258.908c-0.020-142.766-116.163-258.888-258.888-258.888v0zM496.988 832.389c-120.504 0-218.563-98.058-218.563-218.583 0-120.504 98.038-218.542 218.563-218.542 120.484 0 218.563 98.058 218.563 218.542-0.020 120.525-98.079 218.583-218.563 218.583v0zM614.769-57.958l-393.585-0.020c-57.201 3.195-87.409 37.97-89.702 103.281-0.451 12.698 7.496 39.363 10.895 46.264 67.338 137.4 204.186 222.679 357.069 222.679 29.225 0 57.876-3.031 85.586-8.765 8.479 12.329 17.961 23.818 28.201 34.632-36.516 9.277-74.67 14.479-113.848 14.479-168.407 0-319.119-94.044-393.298-245.33-5.468-11.203-15.708-44.38-15.012-65.393 3.072-85.955 49.664-137.769 128.901-142.152h442.184c-17.224 11.674-32.993 25.313-47.391 40.325v0zM900.915 245.514l-64.164-64.143-29.921 31.355-65.577 65.556-166.789-166.81 72.704-72.684 142.561 142.561 22.794-25.682-172.483-171.028h-119.747v119.767l260.874 260.854c2.847 2.867 5.693 4.28 9.974 4.28 4.26 0 7.127-1.413 9.974-4.28l99.779-99.779c2.867-2.867 4.28-7.148 4.28-9.974 0.020-4.28-1.393-7.148-4.26-9.994v0 0zM555.95 20.275h58.45l-58.45 58.45v-58.45zM791.163 326.779l-22.794-22.815 72.704-72.704 21.381 24.248-71.291 71.27zM791.163 326.779z"  horiz-adv-x="1024" />

    
    <glyph glyph-name="shijian" unicode="&#58949;" d="M512 896c-281.6 0-512-230.4-512-512s230.4-512 512-512c281.6 0 512 230.4 512 512 0 281.6-230.4 512-512 512zM512-64c-246.409 0-448 201.591-448 448s201.591 448 448 448c246.391 0 448-201.591 448-448 0-246.409-201.591-448-448-448zM716.322 258.492v0l-177.015 102.383v279.177c0 23.569-19.115 42.684-42.684 42.684-23.552 0-42.667-19.115-42.667-42.684v-279.33c0-31.625 17.562-48.606 51.678-69.41 43.93-26.795 176.043-106.701 176.043-106.701 20.395-11.776 42.513-4.779 54.289 15.616 11.776 20.412 0.802 46.49-19.644 58.266z"  horiz-adv-x="1024" />

    
    <glyph glyph-name="wodexiaoxi" unicode="&#59105;" d="M510.990508 390.608511c27.977191 0 50.735521 22.754237 50.735521 50.731428 0 27.971052-22.75833 50.730405-50.735521 50.730405-27.961842 0-50.720172-22.75833-50.720172-50.730405C460.269313 413.362748 483.028667 390.608511 510.990508 390.608511L510.990508 390.608511zM510.990508 390.608511M284.569686 492.069321c-27.976168 0-50.736545-22.75833-50.736545-50.730405 0-27.976168 22.759353-50.735521 50.736545-50.735521 27.961842 0 50.721195 22.75833 50.721195 50.735521C335.291904 469.310991 312.532551 492.069321 284.569686 492.069321L284.569686 492.069321zM284.569686 492.069321M737.441007 390.608511c27.961842 0 50.716078 22.754237 50.716078 50.731428 0 27.971052-22.753213 50.730405-50.716078 50.730405-27.977191 0-50.750871-22.75833-50.750871-50.730405C686.68502 413.362748 709.463816 390.608511 737.441007 390.608511L737.441007 390.608511zM737.441007 390.608511M510.990508 50.976254c246.465344 0 446.991404 175.122483 446.991404 390.362662 0 215.246319-200.526059 390.357546-446.991404 390.357546-246.468414 0-446.976054-175.111227-446.976054-390.357546 0-118.6851 60.98598-229.585909 167.32796-304.259632l2.492774-1.759063 0-192.997596 191.329607 116.081809 2.153036-0.349971C455.772906 53.358511 483.932246 50.976254 510.990508 50.976254L510.990508 50.976254zM416.359244 105.866399l-140.297326-84.34192 1.879813 138.475841C172.000887 224.884073 108.871081 329.824123 108.871081 441.33994c0 190.517101 180.385347 345.505012 402.115334 345.505012 221.735104 0 402.134777-154.98791 402.134777-345.505012 0-190.513008-180.39558-345.509105-402.130683-345.509105C480.134757 95.829811 448.304817 99.204675 416.359244 105.866399L416.359244 105.866399zM416.359244 105.866399M-1610.196351 434.526767"  horiz-adv-x="1024" />

    
    <glyph glyph-name="hezuojiameng" unicode="&#58985;" d="M886.828 731c-62.41 66.605-129.175 80.592-174.19 80.592-62.8 0-115.53-26.447-141.61-49.092-14.76-12.817-34.9-31.78-57.582-53.785-18.272 17.915-31.49 30.512-39.342 37.507C415.006 798.818 256.947 848.118 142.06 730.198c-30.95-31.767-52.625-66.207-64.422-102.382-9.817-30.092-12.885-61.575-9.125-93.577 6.585-56.055 31.862-97.717 41.377-113.402 0.783-1.287 1.427-2.35 1.923-3.195 18.03-31.002 72.877-79.76 81.977-87.74l-17.22-17.35c-12.46-12.54-19.285-29.19-19.222-46.86 0.068-17.68 7.01-34.28 19.555-46.73 12.485-12.395 29.04-19.22 46.627-19.22 5.07 0 10.045 0.59 14.865 1.685-0.4-3.015-0.615-6.08-0.607-9.175 0.068-17.68 7.015-34.28 19.557-46.73 12.482-12.395 29.037-19.22 46.63-19.22 4.205 0 8.35 0.405 12.397 1.17-0.265-2.44-0.405-4.9-0.395-7.38 0.063-17.685 7.007-34.28 19.552-46.73 12.48-12.395 29.04-19.22 46.627-19.22 4.297 0 8.53 0.41 12.657 1.21-0.288-2.54-0.44-5.1-0.432-7.69 0.065-17.68 7.007-34.27 19.552-46.73 12.477-12.39 29.042-19.21 46.63-19.21 12.427 0 24.32 3.41 34.632 9.76l14.647-14.68c12.155-12.205 28.365-18.23 45.065-18.23 18.685 0.005 37.985 7.54 52.91 22.415 17.595 17.525 25.02 41.165 21.93 62.75 2.725-0.335 5.51-0.525 8.33-0.52 1.46 0 2.93 0.045 4.41 0.135 18.24 1.125 35.76 9.195 49.34 22.73 13.57 13.525 21.71 31.01 22.91 49.245 0.275 4.155 0.16 8.235-0.28 12.215 2.4-0.26 4.825-0.405 7.3-0.405 1.46 0 2.92 0.045 4.41 0.135 18.23 1.13 35.755 9.2 49.33 22.73 17.765 17.7 25.36 41.48 22.36 63.15 3.21-0.45 6.45-0.695 9.72-0.695 18.96 0 38.655 7.725 53.91 22.935l0.32 0.33c26.3 27.82 27.21 72.73 2.04 98.18l-11.945 12.635c16.345 17.455 49.81 53.457 62.585 69.137 18.79 23.062 41.845 70.322 44.96 127.625C962.028 590.813 951.523 661.943 886.828 731zM248.824 240.812c-6.742-6.785-15.725-10.525-25.29-10.525-9.475 0.005-18.39 3.68-25.107 10.345-6.76 6.71-10.492 15.645-10.53 25.17-0.035 9.52 3.64 18.48 10.347 25.235l93.26 93.93c6.74 6.792 15.722 10.53 25.287 10.53 9.472 0 18.39-3.675 25.112-10.345 6.755-6.71 10.49-15.645 10.525-25.16 0.035-9.52-3.64-18.485-10.342-25.24L248.824 240.812zM329.264 167.377c-6.737-6.79-15.72-10.525-25.29-10.525-9.47 0-18.385 3.675-25.107 10.34-6.753 6.715-10.495 15.65-10.525 25.16-0.037 9.52 3.638 18.49 10.345 25.24l93.257 93.935c6.737 6.795 15.72 10.53 25.297 10.53 9.465 0 18.38-3.675 25.102-10.345 6.755-6.71 10.492-15.645 10.53-25.165 0.03-9.52-3.64-18.475-10.347-25.235L329.264 167.377zM407.451 95.217c-6.742-6.795-15.72-10.535-25.295-10.535-9.467 0-18.382 3.68-25.107 10.35-6.752 6.71-10.495 15.645-10.53 25.16-0.033 9.525 3.647 18.485 10.35 25.24l93.257 93.94c6.745 6.785 15.73 10.52 25.292 10.52 9.47 0 18.387-3.67 25.11-10.35 13.942-13.84 14.027-36.445 0.18-50.39L407.451 95.217zM485.849 22.792c-6.732-6.785-15.72-10.53-25.285-10.53-9.467 0-18.392 3.675-25.107 10.35-6.753 6.705-10.495 15.64-10.53 25.16-0.033 9.52 3.637 18.48 10.35 25.235l93.252 93.935c6.75 6.79 15.73 10.53 25.3 10.53 9.47 0 18.38-3.675 25.1-10.35 13.95-13.84 14.03-36.455 0.18-50.4L485.849 22.792zM586.263 2.627c-16.335-16.275-40.905-18.19-54.785-4.265l-13.45 13.49 58.93 59.355 13.78-13.815C604.608 43.467 602.603 18.902 586.263 2.627zM839.768 256.872c-16.73-16.51-41.5-18.69-55.325-4.815l-0.165 0.16-125.17 118.375-12.16-12.86-9.32-9.31 121.32-121.485c13.875-13.925 11.625-38.725-5.005-55.295-8.315-8.28-18.845-13.21-29.665-13.88-10.08-0.62-19.19 2.605-25.65 9.085l-123.99 124.335-21.635-21.57 0.98-0.98 121.125-125.45 0.16-0.17c6.465-6.48 9.655-15.605 8.995-25.69-0.715-10.81-5.68-21.32-13.995-29.61-8.31-8.28-18.85-13.21-29.66-13.875-10.085-0.625-19.2 2.605-25.66 9.085l-13.23 13.27c24.76 25.965 24.31 67.22-1.26 92.61-12.48 12.39-29.045 19.215-46.63 19.215-4.31 0-8.56-0.415-12.69-1.215 2.18 19.42-4.17 39.615-19.09 54.42-12.477 12.39-29.037 19.22-46.63 19.22-4.205 0-8.347-0.4-12.392-1.165 0.258 2.435 0.4 4.895 0.39 7.375-0.063 17.69-7.007 34.28-19.552 46.73-12.48 12.395-29.042 19.22-46.627 19.22-5.07 0-10.04-0.585-14.87-1.685 0.41 3.015 0.615 6.085 0.608 9.185-0.063 17.67-7.005 34.27-19.547 46.725-12.487 12.39-29.047 19.22-46.632 19.22-17.767 0-34.445-6.945-46.967-19.557l-59.2-59.627 4.387 5.06c-16.657 14.46-62.92 57.22-76.805 81.087-0.56 0.965-1.305 2.192-2.207 3.67C76.44 534.861 86.095 628.991 163.935 708.88c55.697 57.162 119.442 65.697 163.11 62.79 57.855-3.855 104.437-28.41 126.75-48.267 7.437-6.622 20.14-18.735 37.812-36.057-82.252-81.015-183.832-186.712-189.692-192.814l-10.16-10.577 10.16-10.585c2.75-2.862 68.237-70.155 141.622-70.155 2.925 0 5.877 0.107 8.757 0.322 5.945 0.265 67.885 4.135 116.52 50.992l73.385 68.085 104.07-108.467-0.145-0.15 95.655-101.205 0.275-0.29C855.518 298.991 854.408 272.531 839.768 256.872zM928.948 544.951c-2.71-49.96-22.24-90.47-38.13-109.977-11.61-14.24-42.63-47.68-59.33-65.532L643.448 565.436l-95.52-88.617-0.22-0.212c-41.38-39.937-96.305-42.535-96.817-42.557l-0.66-0.037c-2.19-0.17-4.445-0.255-6.695-0.255-44.982 0-89.107 33.515-108.84 50.772 42.165 43.685 196.767 203.159 256.367 254.909 22.1 19.19 67.205 41.61 121.575 41.61 56.7 0 107.805-23.865 151.9-70.927C921.868 648.931 931.208 586.528 928.948 544.951z"  horiz-adv-x="1024" />

    
    <glyph glyph-name="gudingdianhua" unicode="&#59145;" d="M626.349351 11.191132c-46.38647 0-166.326143-0.961908-204.849528-1.581008-109.427248-1.570775-179.444928 6.191003-206.050889 33.107025-17.835204 18.070564-20.233833 43.629683-20.233833 66.203818 0 107.622136 125.072577 418.656055 318.389444 418.656055 67.484997 0 135.493927-39.122019 196.757223-113.070218 78.82016-95.213525 133.25084-234.254232 121.301693-309.885769l0 0C819.505559 27.792229 714.693422 11.191132 626.349351 11.191132zM528.330944 63.025685c104.732319 0 243.623623-1.715061 251.801886 50.189076 8.4126 53.201689-36.643572 178.477904-109.523439 266.518053-35.57524 42.99421-91.688235 94.214778-157.004847 94.214778-145.279804 0-266.196735-265.053702-266.196735-365.026624 0-15.452947 1.581008-24.827455 4.663206-27.967982 10.982122-11.158131 92.088348-18.925025 169.428807-17.926278C454.351022 63.548594 482.511385 63.025685 528.330944 63.025685zM513.604544 196.69301c-51.577702 0-93.546559 43.101657-93.546559 96.099708 0 53.004191 41.968857 96.15906 93.546559 96.15906s93.552699-43.154869 93.552699-96.15906C607.157243 239.793644 565.18327 196.69301 513.604544 196.69301zM513.604544 335.322347c-22.803355 0-41.35999-19.064194-41.35999-42.529629 0-23.407106 18.556635-42.470277 41.35999-42.470277 22.808472 0 41.35999 19.064194 41.35999 42.470277C554.964534 316.258153 536.413016 335.322347 513.604544 335.322347zM174.777629 360.668619c-23.289426 0-56.57246 9.999748-87.302345 55.461149-18.888186 23.51353-30.553876 97.884354 0.913812 166.278047 36.877909 80.18218 140.568503 175.812191 425.188842 176.175465 284.165991-0.363274 387.146411-95.314833 423.511643-174.866656 30.351262-66.406432 19.288299-138.362254-0.127913-163.975609-31.600719-45.932122-65.701374-54.361095-88.937588-53.997821-51.043536 1.575892-93.600795 50.28015-110.704334 78.772065-12.868075 21.526269-112.172779 121.81437-223.715201 121.81437-148.693554 0-224.276996-124.538411-225.040383-125.794008-17.226337-28.913517-60.066027-78.296227-111.334691-79.81379C176.412872 360.668619 175.59525 360.668619 174.777629 360.668619zM513.577938 704.953849c-250.904447-0.310062-342.389044-75.829036-374.935298-139.094942-28.588105-55.669904-15.416108-108.567671-9.299807-117.78152 15.821337-23.310915 30.147624-33.465183 46.353724-33.785477 26.761504 0.839111 56.112995 33.672914 68.324108 54.211692 31.088042 52.368718 127.439484 151.454434 269.583878 151.454434 134.986367 0 249.50968-116.109438 268.162506-147.320277 12.07706-20.164249 41.204447-52.475142 67.811432-53.266158 15.495926 0.529049 30.371728 10.218736 45.125757 31.846312l1.078565 1.463328c5.982248 9.326413 18.679431 60.7015-9.075703 114.694205C854.573239 629.963924 763.750721 704.643788 513.577938 704.953849z"  horiz-adv-x="1024" />

    
    <glyph glyph-name="xuanzhong2" unicode="&#60024;" d="M966.983 651.124c0 96.156-77.949 174.115-174.115 174.115l-530.719 0c-96.156 0-174.115-77.949-174.115-174.115l0-530.719c0-96.156 77.949-174.115 174.115-174.115l530.719 0c96.156 0 174.115 77.949 174.115 174.115l0 530.719zM782.268 494.925l-274.835-278.377c-1.259-1.741-2.619-3.397-4.151-4.953-15.58-15.801-40.82-15.801-56.384 0l-140.956 142.764c-15.58 15.801-15.58 41.317 0 57.12s40.82 15.801 56.384 0l112.419-113.845 251.141 254.4c15.58 15.801 40.82 15.801 56.384 0s15.58-41.317 0-57.12z"  horiz-adv-x="1037" />

    
    <glyph glyph-name="guanjiaowangtubiao48" unicode="&#58944;" d="M942.933333 802.133333 896 802.133333 896 814.933333c0 42.666667-34.133333 81.066667-81.066667 81.066667l0 0c-42.666667 0-81.066667-34.133333-81.066667-81.066667l0-12.8L290.133333 802.133333 290.133333 814.933333C290.133333 861.866667 256 896 209.066667 896l0 0C166.4 896 128 861.866667 128 814.933333l0-12.8L81.066667 802.133333C34.133333 802.133333 0 763.733333 0 721.066667l0-768c0-42.666667 34.133333-81.066667 81.066667-81.066667l861.866667 0c42.666667 0 81.066667 34.133333 81.066667 81.066667l0 768C1024 763.733333 989.866667 802.133333 942.933333 802.133333M763.733333 814.933333c0 25.6 21.333333 46.933333 46.933333 46.933333l0 0c25.6 0 46.933333-21.333333 46.933333-46.933333l0-140.8c0-25.6-21.333333-46.933333-46.933333-46.933333l0 0c-25.6 0-46.933333 21.333333-46.933333 46.933333L763.733333 814.933333 763.733333 814.933333zM162.133333 814.933333c0 25.6 21.333333 46.933333 46.933333 46.933333l0 0c25.6 0 46.933333-21.333333 46.933333-46.933333l0-140.8c0-25.6-21.333333-46.933333-46.933333-46.933333l0 0c-25.6 0-46.933333 21.333333-46.933333 46.933333L162.133333 814.933333 162.133333 814.933333zM942.933333-64 81.066667-64c-8.533333 0-17.066667 8.533333-17.066667 17.066667L64 516.266667l896 0 0-563.2C960-55.466667 951.466667-64 942.933333-64M183.466667 401.066667l149.333333 0 0-72.533333L183.466667 328.533333 183.466667 401.066667 183.466667 401.066667zM183.466667 401.066667M439.466667 401.066667l145.066667 0 0-72.533333-145.066667 0L439.466667 401.066667 439.466667 401.066667zM439.466667 401.066667M695.466667 401.066667l145.066667 0 0-72.533333-145.066667 0L695.466667 401.066667 695.466667 401.066667zM695.466667 401.066667M183.466667 256l149.333333 0 0-72.533333L183.466667 183.466667 183.466667 256 183.466667 256zM183.466667 256M439.466667 256l145.066667 0 0-72.533333-145.066667 0L439.466667 256 439.466667 256zM439.466667 256M695.466667 256l145.066667 0 0-72.533333-145.066667 0L695.466667 256 695.466667 256zM695.466667 256M183.466667 110.933333l149.333333 0 0-76.8L183.466667 34.133333 183.466667 110.933333 183.466667 110.933333zM183.466667 110.933333M439.466667 110.933333l145.066667 0 0-76.8-145.066667 0L439.466667 110.933333 439.466667 110.933333zM439.466667 110.933333M695.466667 110.933333l145.066667 0 0-76.8-145.066667 0L695.466667 110.933333 695.466667 110.933333zM695.466667 110.933333"  horiz-adv-x="1024" />

    
    <glyph glyph-name="xiugai01" unicode="&#59006;" d="M846.77053 406.751167c-11.30344 0-20.466124-9.162684-20.466124-20.466124l0-279.381012c0-0.040932 0.00614-0.079818 0.00614-0.119727l-0.00614 0c0-22.092158-17.972327-40.064484-40.064484-40.064484L249.375627 66.71982c-22.091134 0-40.064484 17.972327-40.064484 40.064484L209.311143 605.977627c0 22.091134 17.972327 40.064484 40.064484 40.064484l0 0.378623c1.258667-0.242524 2.555196-0.378623 3.883447-0.378623l289.614074 0c11.30344 0 20.466124 9.163707 20.466124 20.466124s-9.162684 20.466124-20.466124 20.466124L253.260098 686.974359c-1.329275 0-2.62478-0.137123-3.883447-0.378623l0 0.378623c-44.662199 0-80.996732-36.334533-80.996732-80.996732l0-499.193323c0-44.662199 36.334533-80.996732 80.996732-80.996732l536.864294 0c44.662199 0 80.996732 36.335556 80.996732 80.996732l-0.00614 0c0 0.039909 0.00614 0.079818 0.00614 0.119727L867.237677 386.285043C867.236654 397.588483 858.07397 406.751167 846.77053 406.751167zM905.453047 616.764298c-0.954745 11.735275-6.275937 22.99369-14.982226 31.701003l-58.166771 58.166771c-9.619078 9.619078-22.543436 15.135722-35.46063 15.135722-11.520381 0-22.185278-4.319375-30.027897-12.161994l-0.595564-0.595564-40.409338-47.663556c-0.530073-0.555655-1.039679-1.124614-1.531889-1.702782l-0.094144 0.094144L375.623983 311.176414l-1.500167-4.821819c-0.335644-1.080611-8.31027-26.774807-15.195074-54.165644-4.130064-16.428158-7.006578-30.084179-8.549723-40.58944-2.53166-17.222243-2.402723-30.507828 6.453992-39.36352 7.191796-7.191796 16.810874-8.023744 23.421432-8.023744 29.996175 0 102.600773 22.786982 110.781082 25.385157l4.751211 1.509377 348.514555 348.514555-0.099261 0.099261c0.629333 0.536212 1.249457 1.084705 1.848091 1.660826l46.411029 40.675398 0.983397 0.919952C902.117069 591.649294 906.494773 603.964784 905.453047 616.764298zM390.93469 206.12994c1.24434 8.239662 3.88754 21.581528 9.403161 42.768059 4.438079 17.048281 9.112542 32.883945 11.414981 40.520879l1.601474 1.601474 62.229297-62.229297-1.663896-1.663896C449.50669 219.555717 412.373978 209.312422 390.93469 206.12994zM503.480976 256.689453l-62.229297 62.229297 282.932907 282.931884 5.26491-5.26491c0.007163-0.007163 0.014326-0.01535 0.021489-0.022513l51.65445-51.65445c0.007163-0.007163 0.014326-0.013303 0.021489-0.020466l5.266957-5.266957L503.480976 256.689453zM864.554568 612.02639l-45.9004-40.22719-0.974188-0.913812c-0.072655-0.046049-0.428765-0.180102-1.091868-0.180102-1.630127 0-4.198625 0.826831-6.517437 3.146667L758.416226 625.506403c-3.345188 3.344165-3.405563 6.928806-2.972705 7.602142l0.594541 0.595564 39.857776 47.01171c0.171915 0.055259 0.485047 0.119727 0.948605 0.119727 1.629103 0 4.197602-0.826831 6.516414-3.146667l58.166771-58.166771C864.723414 616.325299 864.920912 612.910527 864.554568 612.02639z"  horiz-adv-x="1024" />

    
    <glyph glyph-name="yongcheren" unicode="&#58937;" d="M920.463414 59.322339c-37.487799 103.411231-100.848872 127.663588-151.914922 137.229454-42.573631 7.952112-95.694479 24.586978-114.456798 35.434024-0.605797 8.963139-0.87595 27.218922 0.74292 56.860009 1.109264 1.278109 2.087545 2.290159 3.166109 3.637854l-0.540306 0.540306c25.130354 35.366486 37.188994 68.579935 42.61047 91.078345 16.303314 11.992125 33.381271 35.434024 43.419905 80.774675 5.792936 26.207895 10.139941 59.418274-7.813966 83.131349-0.405229 0.606821-0.842181 1.146103-1.280156 1.684362C750.496347 716.091514 648.770502 800.030251 589.11482 821.993472l-0.873903 0.338714-0.843204 0.13303c-22.500457 7.141654-44.194548 10.778484-64.402799 10.778484-4.750187 0-9.16166-0.200568-13.472849-0.539282-4.446265 0.271176-8.891508 0.539282-13.441127 0.539282-20.175505 0-41.836851-3.569292-64.36903-10.645454l-0.810459-0.333598-0.87595-0.271176c-59.721173-21.828145-161.480788-105.902982-145.311527-272.300756-0.471744-0.470721-0.943488-1.077541-1.281179-1.616824-18.019399-23.780613-13.606903-56.992015-7.812943-83.19991 10.104125-45.27209 27.080775-68.849064 43.419905-80.774675 5.352915-22.297842 17.346063-55.108109 42.068118-90.204441l0 0c0 0 0.271176-0.405229 0.271176-0.473791 1.417279-1.951445 2.494821-3.904936 3.908006-5.925966 1.648546-28.499078 1.345648-46.212508 0.606821-55.57883-18.897396-10.780531-71.814606-27.41642-114.391307-35.437094-51.030234-9.496282-114.459868-33.748638-151.84636-137.15987-6.332219-17.581424-4.044106-36.71418 6.229888-52.343135 38.298258-58.273195 240.941538-70.53445 404.074965-70.53445 163.130358 0 365.772614 12.260232 404.237671 70.670549C924.505473 22.60816 926.730141 41.740916 920.463414 59.322339L920.463414 59.322339 920.463414 59.322339zM354.067526 414.892591c-5.016247 0-26.238594 3.498684-38.668695 59.751872-9.700943 43.658336 0.437975 50.66082 7.915273 50.66082 3.437286 0 6.266727-1.481747 6.266727-1.481747C292.629245 726.466815 443.365318 781.572878 443.365318 781.572878c20.819165 6.532787 38.197974 8.823969 52.614311 8.823969 4.78498 0 9.296737-0.199545 13.408381-0.671289 4.176113 0.470721 8.654101 0.671289 13.470803 0.671289 14.382569 0 31.830963-2.291183 52.54882-8.823969 0 0 150.835334-55.107085 113.784486-257.749342 0 0 2.89391 1.481747 6.398734 1.481747 7.478322 0 17.616216-6.871501 7.884574-50.66082-12.4301-56.184627-33.686217-59.618842-38.672788-59.618842-0.673335 0-1.077541 0.065492-1.077541 0.065492s-2.626827-52.680826-48.907896-109.539812c0-0.404206-0.067538-1.011027-0.067538-1.416256-35.975353-38.467103-72.758094-57.060577-109.605304-55.576783-45.776579 1.952468-81.987293 34.694173-99.975992 54.565756 0 0.338714-0.066515 0.744967-0.066515 1.010003-47.226604 57.33073-49.987484 110.889553-49.987484 110.889553S354.776677 414.892591 354.067526 414.892591L354.067526 414.892591 354.067526 414.892591zM509.961062-20.641877c-193.920618 0-387.838166 21.626553-372.175441 64.874543 31.258934 86.36295 81.042781 102.735849 120.79004 110.211101 39.746236 7.478322 136.385227 32.743752 144.908344 56.658418 2.594081 7.140631 3.571339 20.549012 3.705392 35.503609 24.319895-19.134803 56.890708-37.190017 96.065939-39.074947 2.156106-0.135076 4.313236-0.203638 6.40078-0.203638 35.368532 0 69.862137 13.809517 103.036701 40.288588 0.170892-15.429411 1.181919-29.17139 3.805676-36.580127 8.456602-23.849174 105.061824-49.181119 144.843876-56.659441 39.813774-7.478322 89.562828-23.847128 120.821763-110.212124C897.760342 0.916115 703.876564-20.641877 509.961062-20.641877L509.961062-20.641877 509.961062-20.641877zM509.961062-20.641877"  horiz-adv-x="1024" />

    
    <glyph glyph-name="tianshu" unicode="&#58957;" d="M314.239 602.961c24.208-0.095 44.073 19.16 44.72 43.36L358.959 843.36c-0.647 24.2-20.512 43.455-44.72 43.36-23.945 0-43.36-19.415-43.36-43.36l0-197.04C270.927 622.393 290.312 603.008 314.239 602.961L314.239 602.961zM707.838 602.961c24.21-0.095 44.07 19.16 44.72 43.36L752.558 843.36c-0.65 24.2-20.51 43.455-44.72 43.36-23.945 0-43.36-19.415-43.36-43.36l0-197.04C664.478 622.376 683.893 602.961 707.838 602.961L707.838 602.961zM401.999 777.6l219.28 0L621.279 712l-219.28 0L401.999 777.6 401.999 777.6zM877.918 777.6l-81.52 0 0-65.2 84.64 0c25.2-0.345 45.535-20.72 45.84-45.92l0-152L96 514.48 96 666.4c0.48 25.233 21 45.472 46.24 45.6l85.2 0 0 65.6-81.36 0c-63.345-0.265-114.592-51.615-114.72-114.959l0-666.558c-0.752-62.69 49.455-114.12 112.152-114.87 0.16 0 0.328 0 0.488-0.01l733.758 0c63.31 0.265 114.545 51.57 114.72 114.88L992.478 662.641C992.347 725.92 941.198 777.248 877.918 777.6L877.918 777.6zM328.209 137.682c-68.17-0.255-123.637 54.82-123.89 122.99s54.82 123.637 122.99 123.89c68.17 0.253 123.637-54.82 123.89-122.99 0-0.105 0-0.195 0-0.3 0.09-68.095-55.045-123.345-123.14-123.44l0 0 0 0L328.209 137.682z"  horiz-adv-x="1024" />

    
    <glyph glyph-name="guanbi1" unicode="&#58995;" d="M512.000731 896C230.398464 896 0 665.602633 0 383.998574 0 102.395941 230.398464-128 512.000731-128 793.601536-128 1024 102.395941 1024 383.998574 1024 665.602633 793.601536 896 512.000731 896M725.329335 230.395575C742.396306 213.327141 742.396306 187.729481 725.329335 170.669641 708.270958 153.601207 682.674761 153.601207 665.606363 170.669641L512.000731 324.265509 358.395063 170.669641C341.336686 153.601207 315.740489 153.601207 298.662071 170.669641 281.600805 187.729481 281.600805 213.327141 298.662071 230.395575L452.26485 383.998574 298.662071 537.604425C281.600805 554.661413 281.600805 580.259072 298.662071 597.338917 315.740489 614.397367 341.336686 614.397367 358.395063 597.338917L512.000731 443.734491 665.606363 597.338917C682.673335 614.397367 708.270958 614.397367 725.329335 597.338917 742.396306 580.259072 742.396306 554.661413 725.329335 537.604425L571.733687 383.998574 725.329335 230.395575"  horiz-adv-x="1024" />

    
    <glyph glyph-name="huoche" unicode="&#59066;" d="M215.732901 473.682555l37.384445 37.384445c17.377786 0.163729 31.41857 14.296611 31.41857 31.715329 0 10.79895-5.399987 20.332071-13.643742 26.061562L270.892175 677.857724c0 10.550287-8.55177 19.102057-19.102057 19.102057-10.549264 0-19.101033-8.55177-19.101033-19.102057l0-110.554932c-7.081279-5.818519-11.598152-14.641465-11.598152-24.520463 0-3.501754 0.576121-6.868431 1.623987-10.019191l-33.031301-33.031301c-7.192819-7.192819-7.192819-18.85544 0-26.049283S208.540082 466.489736 215.732901 473.682555zM831.49001 583.443401 628.96441 583.443401l0 54.517661c0 23.295566-19.75288 42.179658-44.118823 42.179658L410.046468 680.140721c-38.666648 46.633087-97.037057 76.337619-162.347528 76.337619-116.422569 0-210.801077-94.378507-210.801077-210.801077 0-45.854351 14.648628-88.282672 39.509852-122.878608l0-271.455505c0-23.295566 19.75288-42.179658 44.118823-42.179658l53.007261 0c9.071609-55.005778 56.839543-96.965425 114.414843-96.965425 57.577347 0 105.344257 41.959647 114.415866 96.965425l182.482101 0c8.471952 0 16.385179 2.287089 23.105231 6.246261 6.011924-3.962242 13.051247-6.245238 20.578688-6.245238l39.235606 0c9.070586-55.006801 56.838519-96.966449 114.414843-96.966449 57.577347 0 105.34528 41.959647 114.416889 96.966449l52.574403 0c22.080901 0 39.981596 19.609617 39.981596 43.795459L989.153866 384.106424C991.641523 415.210839 858.100064 585.591321 831.49001 583.443401zM81.239767 545.678286c0 55.239092 26.916023 104.184851 68.337411 134.463458 27.51568 20.113083 61.428048 31.994692 98.120738 31.994692s70.605058-11.881608 98.120738-31.994692c15.014972-10.975982 28.120454-24.402783 38.73214-39.696094 18.658965-26.89658 29.606295-59.551304 29.606295-94.76634 0-91.931782-74.526367-166.458149-166.458149-166.458149-54.874795 0-103.541191 26.557866-133.8638 67.51672C93.355713 474.397846 81.239767 508.621299 81.239767 545.678286zM359.138008 109.164514c-8.383948-31.475875-37.07336-54.66911-71.189366-54.66911-34.116005 0-62.804395 23.193235-71.187319 54.66911-1.616824 6.066159-2.489704 12.434194-2.489704 19.008936 0 6.440689 0.831948 12.685927 2.384303 18.641569 8.257058 31.66314 37.043684 55.036477 71.29272 55.036477 34.251082 0 63.037708-23.373337 71.293743-55.036477 1.553379-5.954619 2.384303-12.20088 2.384303-18.641569C361.625666 121.598708 360.752786 115.230674 359.138008 109.164514zM591.539033 556.276668c-1.923816-5.127787-2.991124-10.740622-2.991124-16.627702l0-370.546338c-5.785773-13.096273-19.345604-22.286586-35.152615-22.286586L402.423861 146.816043c-8.918114 55.186903-56.772005 97.332792-114.476241 97.332792-57.704237 0-105.556081-42.146912-114.475218-97.332792l-21.496593 0c-21.065781 0-38.141692 16.325827-38.141692 36.465516L113.834116 382.833431c36.405141-29.962405 83.034135-47.956222 133.8638-47.956222 116.422569 0 210.801077 94.378507 210.801077 210.801077 0 34.085306-8.100492 66.275449-22.464641 94.76634l117.360941 0c21.066805 0 38.142715-16.325827 38.142715-36.465516L591.538009 556.276668zM853.36932 109.165538c-8.383948-31.475875-37.07336-54.670134-71.189366-54.670134-34.116005 0-62.804395 23.194258-71.188342 54.670134-1.614777 6.066159-2.488681 12.43317-2.488681 19.007913 0 6.935969 0.979304 13.640672 2.771113 20.004613 8.719592 30.966269 37.152155 53.673433 70.90591 53.673433s62.187341-22.707165 70.906933-53.673433c1.791809-6.363941 2.771113-13.068643 2.771113-20.004613C855.858 121.598708 854.984097 115.231697 853.36932 109.165538zM950.194552 184.484967c0-20.049638-14.282285-36.306904-31.899524-36.306904l-21.864984 0c-9.479909 54.516638-57.021691 95.969749-114.25009 95.969749-57.228399 0-104.769159-41.453111-114.248044-95.969749l-5.456269 0c-17.618263 0-31.899524 16.258289-31.899524 36.306904L630.576117 505.055077c0 20.052708 14.281261 36.306904 31.899524 36.306904l161.930019 0c7.150864-7.856945 16.522302-18.897396 26.926256-31.592532l-101.050464 0c-23.769356 0-43.037189-20.658506-43.037189-46.1419l0-98.04092c0-25.484418 19.267832-46.142923 43.037189-46.142923l196.34483 0c1.203408 0 2.390443 0.067538 3.568269 0.171915L950.194552 184.484967zM950.194552 353.5812l-0.00921 1.76725-169.032788-0.096191c-20.661575 0-37.413098 12.523221-37.413098 27.974122l0 59.437717c0 15.448854 16.750499 27.973098 37.413098 27.973098l101.33392 0.1361c32.94739-42.158169 65.253166-86.244246 67.707055-94.665033L950.193529 353.5812z"  horiz-adv-x="1024" />

    
    <glyph glyph-name="wode" unicode="&#59003;" d="M960.053977-128l-0.938726 7.791427C933.074988 95.116424 732.506765 270.320267 512 270.320267c-220.506765 0-421.074988-175.185068-447.096476-390.52884l-0.938726-7.791427L5.087896-128l1.051373 9.819075C26.509626 71.68582 159.395695 242.815592 336.814932 307.606468l5.407062 1.990099-4.843827 3.116571c-90.699718 58.332441-144.84544 155.509369-144.84544 259.989586C192.532727 744.921418 341.827729 896 512 896c170.191045 0 319.467273-151.078582 319.467273-323.334825 0-104.461443-54.145723-201.63837-144.84544-259.989586l-4.843827-3.116571 5.407062-1.990099c177.419237-64.809651 310.305306-235.920648 330.675663-425.787393L1018.912104-128 960.053977-128zM512 836.353342c-131.515529 0-260.590371-130.614352-260.590371-263.669392 0-138.912691 137.5797-242.717025 260.590371-242.717025 123.010671 0 260.590371 103.78556 260.590371 242.717025C772.590371 705.73899 643.515529 836.353342 512 836.353342z"  horiz-adv-x="1024" />

    
    <glyph glyph-name="yuyue1" unicode="&#59146;" d="M737.119217-33.654042c-58.918757 0-114.339962 22.963925-156.030778 64.654742-41.690816 41.610872-64.654742 97.012092-64.654742 156.030778 0 58.918757 22.963925 114.339962 64.654742 156.030778 41.610872 41.690816 97.012092 64.654742 156.030778 64.654742 58.918757 0 114.339962-22.963925 156.030778-64.654742 41.690816-41.610872 64.654742-97.032078 64.654742-156.030778 0-58.918757-22.963925-114.339962-64.654742-156.030778C851.539123-10.690117 796.117917-33.654042 737.119217-33.654042zM737.119217 360.250225c-95.513141 0-173.218747-77.705606-173.218747-173.218747 0-95.513141 77.705606-173.218747 173.218747-173.218747 95.513141 0 173.218747 77.705606 173.218747 173.218747C910.337963 282.544619 832.632357 360.250225 737.119217 360.250225zM157.145198 22.606575c-50.124913 0-90.916359 40.791446-90.916359 90.916359L66.22884 654.444289c0 50.124913 40.791446 90.916359 90.916359 90.916359l77.905466 0L235.050665 777.897871c0 13.090836 10.652543 23.74338 23.74338 23.74338 13.090836 0 23.74338-10.652543 23.74338-23.74338l0-32.537224 346.437494 0L628.974918 777.897871c0 13.090836 10.652543 23.74338 23.74338 23.74338 13.090836 0 23.74338-10.652543 23.74338-23.74338l0-32.537224 77.905466 0c50.124913 0 90.916359-40.791446 90.916359-90.916359l0-181.652843L113.715599 472.791446l0-359.268512c0-23.963226 19.48636-43.449585 43.449585-43.449585L457.594884 70.073349c13.030878 0 23.463575-10.192865 23.723394-23.223743 0.139902-6.255621-2.278405-12.231438-6.775257-16.808234-4.616768-4.716698-11.032277-7.434796-17.587689-7.434796L157.145198 22.606575zM157.145198 697.893874c-23.963226 0-43.449585-19.48636-43.449585-43.449585l0-134.18607 684.081143 0 0 134.18607c0 23.963226-19.48636 43.449585-43.449585 43.449585L676.441691 697.893874l0-60.677526c0-13.090836-10.652543-23.74338-23.74338-23.74338-13.090836 0-23.74338 10.652543-23.74338 23.74338l0 60.677526L282.517438 697.893874l0-60.677526c0-13.090836-10.652543-23.74338-23.74338-23.74338-13.090836 0-23.74338 10.652543-23.74338 23.74338l0 60.677526L157.145198 697.893874zM713.375837 163.288098 713.375837 271.432397c0 13.090836 10.652543 23.74338 23.74338 23.74338 13.090836 0 23.74338-10.652543 23.74338-23.74338l0-60.677526 60.677526 0c13.090836 0 23.74338-10.652543 23.74338-23.74338 0-13.090836-10.652543-23.74338-23.74338-23.74338L713.375837 163.268112zM230.653742 163.288098c-13.090836 0-23.74338 10.652543-23.74338 23.74338 0 13.090836 10.652543 23.74338 23.74338 23.74338l140.681523 0c13.090836 0 23.74338-10.652543 23.74338-23.74338 0-13.090836-10.652543-23.74338-23.74338-23.74338L230.653742 163.288098zM230.653742 332.109923c-13.090836 0-23.74338 10.652543-23.74338 23.74338 0 13.090836 10.652543 23.74338 23.74338 23.74338l140.681523 0c13.090836 0 23.74338-10.652543 23.74338-23.74338 0-13.090836-10.652543-23.74338-23.74338-23.74338L230.653742 332.109923z"  horiz-adv-x="1024" />

    
    </font>
</defs>
</svg>
